{"glyphs":{"0":{"ha":686,"x_min":126,"x_max":756,"o":"m 621 147 q 554 42 607 85 q 442 0 501 0 l 244 0 q 158 31 190 0 q 126 113 126 63 q 131 147 126 129 l 263 768 q 326 872 275 828 q 439 915 376 915 l 636 915 q 722 883 688 915 q 756 799 756 850 q 753 768 756 783 l 621 147 m 507 157 l 635 758 q 597 800 643 800 l 425 800 q 374 756 382 800 l 247 164 q 254 129 243 144 q 282 114 265 114 l 451 114 q 507 157 497 114 z "},"1":{"ha":408,"x_min":164,"x_max":472,"o":"m 278 0 l 164 0 l 333 800 l 268 800 l 293 915 l 472 915 l 278 0 z "},"2":{"ha":686,"x_min":99,"x_max":756,"o":"m 589 0 l 99 0 l 182 392 q 248 497 196 456 q 358 539 300 539 l 542 539 q 597 582 588 539 l 635 756 q 628 787 638 774 q 601 800 619 800 l 428 800 q 374 758 382 800 l 365 719 l 251 719 l 263 768 q 327 873 275 831 q 439 915 379 915 l 636 915 q 723 882 690 915 q 756 799 756 849 q 753 768 756 783 l 711 572 q 644 467 697 510 q 532 425 592 425 l 349 425 q 293 382 303 425 l 236 114 l 497 114 l 506 150 l 621 150 l 589 0 z "},"3":{"ha":686,"x_min":126,"x_max":756,"o":"m 204 232 q 242 222 228 232 q 254 196 257 211 l 246 157 q 282 114 236 114 l 456 114 q 507 160 497 114 l 554 382 q 518 425 564 425 l 385 425 l 408 539 l 542 539 q 597 582 588 539 l 635 756 q 628 787 638 774 q 601 800 619 800 l 428 800 q 374 758 382 800 l 365 719 l 251 719 l 263 768 q 327 873 275 831 q 439 915 379 915 l 636 915 q 723 882 690 915 q 756 799 756 849 q 753 768 756 783 l 711 572 q 660 482 700 524 q 672 392 682 440 l 621 147 q 556 44 607 88 q 442 0 504 0 l 244 0 q 160 33 193 0 q 126 115 126 65 q 131 147 126 131 l 140 196 q 204 232 147 232 z "},"4":{"ha":653,"x_min":168,"x_max":750,"o":"m 485 842 q 472 811 485 822 l 367 724 l 307 443 l 536 443 l 636 915 l 750 915 l 556 0 l 442 0 l 511 329 l 168 329 l 263 772 l 408 892 q 431 900 418 900 q 469 881 453 900 q 485 842 485 863 z "},"5":{"ha":686,"x_min":126,"x_max":750,"o":"m 206 233 q 243 222 229 233 q 254 196 257 211 l 246 157 q 282 114 236 114 l 456 114 q 507 160 497 114 l 554 382 q 518 425 564 425 l 189 425 l 293 915 l 750 915 l 717 756 l 603 756 l 611 800 l 382 800 l 326 539 l 556 539 q 642 507 608 539 q 675 424 675 475 q 672 392 675 408 l 621 147 q 556 44 607 88 q 442 0 504 0 l 244 0 q 160 33 193 0 q 126 115 126 65 q 131 147 126 131 l 140 196 q 206 233 149 233 z "},"6":{"ha":686,"x_min":126,"x_max":756,"o":"m 621 147 q 556 44 607 88 q 442 0 504 0 l 244 0 q 160 33 193 0 q 126 115 126 65 q 131 147 126 131 l 263 768 q 326 872 275 828 q 439 915 376 915 l 636 915 q 722 883 688 915 q 756 799 756 850 q 753 768 756 783 l 742 719 l 626 719 l 635 758 q 597 800 643 800 l 425 800 q 374 756 382 800 l 326 539 l 556 539 q 642 507 608 539 q 675 424 675 475 q 672 392 675 408 l 621 147 m 507 160 l 554 382 q 518 425 564 425 l 303 425 l 247 164 q 254 129 243 144 q 282 114 265 114 l 456 114 q 507 160 497 114 z "},"7":{"ha":608,"x_min":189,"x_max":719,"o":"m 650 589 l 381 367 l 303 -1 l 189 -1 l 278 415 l 547 638 l 581 800 l 246 800 l 271 915 l 719 915 l 650 589 z "},"8":{"ha":686,"x_min":126,"x_max":756,"o":"m 621 147 q 556 44 607 88 q 442 0 504 0 l 244 0 q 160 33 193 0 q 126 115 126 65 q 131 147 126 131 l 182 392 q 232 482 193 443 q 221 572 210 521 l 263 768 q 327 873 275 831 q 439 915 379 915 l 636 915 q 723 882 690 915 q 756 799 756 849 q 753 768 756 783 l 711 572 q 660 482 700 524 q 672 392 682 440 l 621 147 m 597 582 l 635 756 q 628 787 638 774 q 601 800 619 800 l 428 800 q 374 758 382 800 l 336 582 q 372 539 326 539 l 542 539 q 597 582 588 539 m 507 160 l 554 382 q 518 425 564 425 l 349 425 q 293 382 303 425 l 246 157 q 282 114 236 114 l 456 114 q 507 160 497 114 z "},"9":{"ha":686,"x_min":126,"x_max":756,"o":"m 588 539 l 633 751 q 626 785 638 771 q 597 800 615 800 l 425 800 q 374 756 382 800 l 336 582 q 372 539 326 539 l 588 539 m 206 233 q 243 222 229 233 q 254 196 257 211 l 246 157 q 282 114 236 114 l 456 114 q 507 160 497 114 l 564 425 l 335 425 q 250 458 283 425 q 217 540 217 490 q 221 572 217 556 l 263 768 q 326 872 275 828 q 439 915 376 915 l 636 915 q 722 883 688 915 q 756 799 756 850 q 753 768 756 783 l 621 147 q 556 44 607 88 q 442 0 504 0 l 244 0 q 160 33 193 0 q 126 115 126 65 q 131 147 126 131 l 140 196 q 206 233 149 233 z "},"‛":{"ha":694,"x_min":88,"x_max":608,"o":"m 88 0 l 88 1063 l 608 1063 l 608 0 l 88 0 m 174 88 l 521 88 l 521 976 l 174 976 l 174 88 z "}," ":{"ha":408,"x_min":0,"x_max":0,"o":""},"!":{"ha":360,"x_min":114,"x_max":439,"o":"m 300 261 l 169 261 l 308 915 l 439 915 l 300 261 m 244 0 l 114 0 l 142 131 l 272 131 l 244 0 z "},"\"":{"ha":563,"x_min":231,"x_max":660,"o":"m 660 915 l 483 610 l 433 610 l 529 915 l 660 915 m 457 915 l 281 610 l 231 610 l 326 915 l 457 915 z "},"#":{"ha":621,"x_min":139,"x_max":624,"o":"m 563 192 l 475 192 l 450 74 l 375 74 l 400 192 l 301 192 l 276 74 l 201 74 l 226 192 l 139 192 l 156 267 l 243 267 l 272 404 l 185 404 l 200 479 l 288 479 l 313 596 l 388 596 l 363 479 l 461 479 l 486 596 l 561 596 l 536 479 l 624 479 l 608 404 l 521 404 l 492 267 l 579 267 l 563 192 m 417 267 l 446 404 l 347 404 l 318 267 l 417 267 z "},"$":{"ha":651,"x_min":153,"x_max":707,"o":"m 610 263 q 551 169 599 208 q 446 129 504 129 l 414 129 l 397 54 l 282 54 l 299 129 l 261 129 q 184 162 215 129 q 153 243 153 194 q 156 271 153 257 l 168 325 l 282 325 l 274 289 q 281 261 271 272 q 310 250 292 250 l 443 250 q 492 294 482 250 l 515 407 q 509 433 519 422 q 483 444 499 444 l 328 444 q 250 474 282 444 q 218 550 218 504 q 221 578 218 564 l 249 704 q 308 800 260 760 q 413 840 356 840 l 450 840 l 465 915 l 581 915 l 565 840 l 597 840 q 676 810 644 840 q 707 733 707 781 q 704 704 707 719 l 692 650 l 567 650 l 575 688 q 543 725 583 725 l 407 725 q 358 683 367 725 l 340 599 q 375 558 331 558 l 536 558 q 616 528 585 558 q 647 453 647 499 q 644 424 647 439 l 610 263 z "},"%":{"ha":832,"x_min":190,"x_max":782,"o":"m 467 450 q 440 406 461 424 q 394 388 419 388 l 240 388 q 190 436 190 388 q 192 450 190 443 l 224 604 q 252 649 229 629 q 300 669 275 669 l 454 669 q 501 619 501 669 q 499 604 501 613 l 467 450 m 407 465 l 433 589 q 421 604 436 604 l 303 604 q 285 589 288 604 l 258 465 q 272 450 256 450 l 389 450 q 407 465 404 450 m 751 656 l 265 -17 l 215 13 l 701 685 l 751 656 m 747 64 q 721 18 742 36 q 675 0 700 0 l 521 0 q 472 49 472 0 q 474 64 472 56 l 507 219 q 533 262 511 243 q 581 281 556 281 l 735 281 q 782 233 782 281 q 781 219 782 226 l 747 64 m 689 81 l 715 203 q 703 219 719 219 l 585 219 q 565 203 569 219 l 539 81 q 553 64 536 64 l 669 64 q 689 81 686 64 z "},"&":{"ha":585,"x_min":124,"x_max":583,"o":"m 556 169 l 524 192 l 511 132 q 454 39 500 78 q 351 0 408 0 l 231 0 q 153 30 182 0 q 124 104 124 60 q 126 132 124 118 l 165 314 q 211 396 175 360 q 200 475 189 428 l 228 606 q 285 699 239 658 q 388 739 332 739 l 475 739 q 552 709 521 739 q 583 633 583 679 q 581 606 583 619 l 568 550 l 461 550 l 469 586 q 436 624 476 624 l 381 624 q 336 586 343 624 l 313 475 l 451 382 l 465 443 l 578 443 l 550 317 l 582 296 l 556 169 m 404 156 l 425 253 l 314 325 q 294 333 301 333 q 278 311 282 333 l 244 156 q 274 118 236 118 l 358 118 q 404 156 396 118 z "},"'":{"ha":310,"x_min":231,"x_max":457,"o":"m 457 915 l 281 610 l 231 610 l 326 915 l 457 915 z "},"(":{"ha":435,"x_min":74,"x_max":556,"o":"m 285 -244 l 193 -244 q 106 -214 139 -244 q 74 -133 74 -183 q 78 -99 74 -117 l 286 882 q 350 986 299 943 q 464 1029 401 1029 l 556 1029 l 531 915 l 450 915 q 397 869 407 915 l 194 -82 q 201 -116 190 -101 q 231 -131 213 -131 l 308 -131 l 285 -244 z "},")":{"ha":435,"x_min":47,"x_max":526,"o":"m 315 -99 q 251 -203 301 -162 q 138 -244 201 -244 l 47 -244 l 71 -131 l 149 -131 q 183 -116 167 -131 q 204 -82 200 -101 l 407 869 q 402 901 411 888 q 374 915 393 915 l 293 915 l 318 1029 l 408 1029 q 494 997 463 1029 q 526 914 526 964 q 524 882 526 899 l 315 -99 z "},"*":{"ha":686,"x_min":233,"x_max":732,"o":"m 668 500 l 590 436 l 504 544 l 472 392 l 381 392 l 413 544 l 282 436 l 233 500 l 418 654 l 297 807 l 374 871 l 460 763 l 492 915 l 583 915 l 551 763 l 682 871 l 732 807 l 546 654 l 668 500 z "},"+":{"ha":686,"x_min":158,"x_max":672,"o":"m 649 278 l 460 278 l 419 90 l 306 90 l 346 278 l 158 278 l 182 392 l 369 392 l 410 581 l 524 581 l 483 392 l 672 392 l 649 278 z "},",":{"ha":360,"x_min":46,"x_max":272,"o":"m 272 131 l 96 -175 l 46 -175 l 142 131 l 272 131 z "},"-":{"ha":686,"x_min":217,"x_max":617,"o":"m 593 278 l 217 278 l 240 392 l 617 392 l 593 278 z "},".":{"ha":360,"x_min":114,"x_max":272,"o":"m 244 0 l 114 0 l 142 131 l 272 131 l 244 0 z "},"/":{"ha":499,"x_min":6,"x_max":679,"o":"m 679 1029 l 119 -179 l 6 -179 l 564 1029 l 679 1029 z "},":":{"ha":360,"x_min":114,"x_max":386,"o":"m 358 539 l 228 539 l 256 669 l 386 669 l 358 539 m 244 0 l 114 0 l 142 131 l 272 131 l 244 0 z "},";":{"ha":360,"x_min":46,"x_max":386,"o":"m 358 539 l 228 539 l 256 669 l 386 669 l 358 539 m 272 131 l 96 -175 l 46 -175 l 142 131 l 272 131 z "},"<":{"ha":519,"x_min":165,"x_max":521,"o":"m 443 147 l 344 65 l 165 293 l 182 371 l 458 599 l 521 517 l 299 332 l 443 147 z "},"=":{"ha":686,"x_min":135,"x_max":694,"o":"m 671 383 l 181 383 l 204 499 l 694 499 l 671 383 m 625 172 l 135 172 l 160 286 l 650 286 l 625 172 z "},">":{"ha":519,"x_min":140,"x_max":496,"o":"m 479 293 l 203 65 l 140 147 l 364 332 l 218 517 l 317 599 l 496 371 l 479 293 z "},"?":{"ha":738,"x_min":244,"x_max":806,"o":"m 764 589 q 698 483 750 525 q 586 442 646 442 l 531 442 q 475 399 485 442 l 439 229 l 308 229 l 350 425 q 416 530 364 488 q 529 572 468 572 l 585 572 q 639 614 631 572 l 665 739 q 660 771 669 757 q 632 785 651 785 l 442 785 q 388 742 396 785 l 375 686 l 244 686 l 263 768 q 327 873 275 831 q 439 915 379 915 l 686 915 q 773 882 740 915 q 806 799 806 849 q 803 768 806 783 l 764 589 m 390 0 l 260 0 l 288 131 l 418 131 l 390 0 z "},"@":{"ha":1042,"x_min":160,"x_max":1025,"o":"m 768 150 l 535 150 q 437 188 474 150 q 400 282 400 226 q 404 317 400 299 l 413 356 q 487 474 428 426 q 614 522 546 522 l 786 522 l 732 267 l 778 267 q 826 283 803 267 q 857 328 850 300 l 903 547 q 906 563 906 556 q 854 614 906 614 l 451 614 q 401 593 425 614 q 371 544 376 572 l 282 128 q 281 114 281 121 q 331 61 281 61 l 822 61 l 799 -53 l 293 -53 q 196 -16 232 -53 q 160 76 160 21 q 164 113 160 94 l 260 563 q 333 681 275 633 q 458 728 392 728 l 890 728 q 988 691 951 728 q 1025 597 1025 654 q 1021 563 1025 581 l 968 317 q 895 198 954 246 q 768 150 836 150 m 644 406 l 606 406 q 555 385 579 406 q 525 336 531 364 l 510 267 l 615 267 l 644 406 z "},"A":{"ha":686,"x_min":99,"x_max":756,"o":"m 589 0 l 474 0 l 547 343 l 286 343 l 213 0 l 99 0 l 263 768 q 327 873 275 831 q 439 915 379 915 l 636 915 q 722 883 688 915 q 756 799 756 850 q 753 768 756 783 l 589 0 m 571 457 l 635 758 q 597 800 643 800 l 428 800 q 374 758 382 800 l 310 457 l 571 457 z "},"B":{"ha":686,"x_min":99,"x_max":756,"o":"m 621 147 q 556 42 607 83 q 442 0 506 0 l 99 0 l 293 915 l 636 915 q 723 882 690 915 q 756 799 756 849 q 753 768 756 783 l 711 572 q 661 481 700 522 q 672 392 682 439 l 621 147 m 599 589 l 635 756 q 628 787 638 774 q 601 800 619 800 l 382 800 l 326 539 l 542 539 q 577 554 560 539 q 599 589 594 569 m 508 164 l 554 379 q 549 411 558 397 q 522 425 540 425 l 303 425 l 236 114 l 451 114 q 487 129 469 114 q 508 164 504 144 z "},"C":{"ha":658,"x_min":126,"x_max":756,"o":"m 579 232 q 618 222 603 232 q 631 196 633 211 l 621 147 q 554 42 607 85 q 442 0 501 0 l 244 0 q 158 31 190 0 q 126 113 126 63 q 131 147 126 129 l 263 768 q 326 872 275 828 q 439 915 376 915 l 636 915 q 722 883 688 915 q 756 799 756 850 q 753 768 756 783 l 742 719 l 626 719 l 635 758 q 597 800 643 800 l 425 800 q 374 756 382 800 l 247 164 q 254 129 243 144 q 282 114 265 114 l 451 114 q 507 157 497 114 l 515 196 q 579 232 522 232 z "},"D":{"ha":686,"x_min":99,"x_max":756,"o":"m 621 147 q 554 42 607 85 q 442 0 501 0 l 99 0 l 293 915 l 636 915 q 722 883 688 915 q 756 799 756 850 q 753 768 756 783 l 621 147 m 507 157 l 635 758 q 597 800 643 800 l 382 800 l 236 114 l 451 114 q 507 157 497 114 z "},"E":{"ha":681,"x_min":99,"x_max":783,"o":"m 589 0 l 589 0 l 99 0 l 293 915 l 783 915 l 758 800 l 382 800 l 326 539 l 622 539 l 599 425 l 303 425 l 236 114 l 613 114 q 639 75 639 114 q 625 28 639 51 q 589 0 610 0 z "},"F":{"ha":644,"x_min":99,"x_max":783,"o":"m 600 425 l 599 425 l 303 425 l 213 0 l 99 0 l 293 915 l 783 915 l 758 800 l 382 800 l 326 539 l 624 539 q 650 500 650 539 q 636 453 650 476 q 600 425 621 425 z "},"G":{"ha":686,"x_min":126,"x_max":756,"o":"m 621 147 q 554 42 607 85 q 442 0 501 0 l 244 0 q 158 31 190 0 q 126 113 126 63 q 131 147 126 129 l 263 768 q 326 872 275 828 q 439 915 376 915 l 636 915 q 722 883 688 915 q 756 799 756 850 q 753 768 756 783 l 742 719 l 626 719 l 635 758 q 597 800 643 800 l 425 800 q 374 756 382 800 l 247 164 q 254 129 243 144 q 282 114 265 114 l 451 114 q 507 157 497 114 l 547 343 l 465 343 l 489 457 l 686 457 l 621 147 z "},"H":{"ha":686,"x_min":99,"x_max":783,"o":"m 589 0 l 474 0 l 564 425 l 303 425 l 213 0 l 99 0 l 293 915 l 407 915 l 326 539 l 588 539 l 668 915 l 783 915 l 589 0 z "},"I":{"ha":376,"x_min":131,"x_max":439,"o":"m 244 0 l 131 0 l 325 915 l 439 915 l 244 0 z "},"J":{"ha":629,"x_min":69,"x_max":726,"o":"m 147 232 q 185 222 171 232 q 197 196 200 211 l 189 157 q 225 114 179 114 l 399 114 q 450 160 440 114 l 611 915 l 726 915 l 564 147 q 499 44 550 88 q 385 0 447 0 l 188 0 q 103 33 136 0 q 69 115 69 65 q 74 147 69 131 l 83 196 q 147 232 90 232 z "},"K":{"ha":679,"x_min":99,"x_max":779,"o":"m 589 0 l 474 0 l 533 281 q 413 438 540 315 l 388 463 l 289 357 l 213 0 l 99 0 l 293 914 l 407 914 l 326 538 l 668 914 l 779 914 l 771 879 l 479 557 l 503 536 q 657 322 669 381 l 589 0 z "},"L":{"ha":621,"x_min":99,"x_max":574,"o":"m 522 0 l 99 0 l 293 915 l 407 915 l 236 114 l 546 114 q 574 75 574 114 q 560 28 574 51 q 522 0 543 0 z "},"M":{"ha":897,"x_min":99,"x_max":965,"o":"m 963 768 q 965 800 965 785 q 931 883 965 850 q 846 915 897 915 l 733 915 q 638 886 686 915 q 553 915 603 915 l 439 915 q 327 873 379 915 q 263 768 275 831 l 99 0 l 213 0 l 374 758 q 429 801 383 801 l 517 801 q 545 790 533 801 q 553 758 557 778 l 392 0 l 506 0 l 667 758 q 722 801 676 801 l 810 801 q 838 790 826 801 q 846 758 850 778 l 685 0 l 799 0 l 963 768 z "},"N":{"ha":686,"x_min":99,"x_max":783,"o":"m 589 0 l 444 0 l 350 650 l 213 0 l 99 0 l 293 915 l 428 915 l 525 242 l 668 915 l 783 915 l 589 0 z "},"O":{"ha":686,"x_min":126,"x_max":756,"o":"m 621 147 q 554 42 607 85 q 442 0 501 0 l 244 0 q 158 31 190 0 q 126 113 126 63 q 131 147 126 129 l 263 768 q 326 872 275 828 q 439 915 376 915 l 636 915 q 722 883 688 915 q 756 799 756 850 q 753 768 756 783 l 621 147 m 507 157 l 635 758 q 597 800 643 800 l 425 800 q 374 756 382 800 l 247 164 q 254 129 243 144 q 282 114 265 114 l 451 114 q 507 157 497 114 z "},"P":{"ha":679,"x_min":99,"x_max":756,"o":"m 711 572 q 647 467 697 508 q 532 425 596 425 l 303 425 l 213 0 l 99 0 l 293 915 l 636 915 q 723 882 690 915 q 756 799 756 849 q 753 768 756 783 l 711 572 m 599 589 l 635 756 q 628 787 638 774 q 601 800 619 800 l 382 800 l 326 539 l 542 539 q 577 554 560 539 q 599 589 594 569 z "},"Q":{"ha":686,"x_min":126,"x_max":756,"o":"m 621 147 q 554 42 607 85 q 442 0 501 0 l 401 0 l 383 -82 l 269 -82 l 288 0 l 244 0 q 158 31 190 0 q 126 113 126 63 q 131 147 126 129 l 263 768 q 326 872 275 828 q 439 915 376 915 l 636 915 q 722 883 688 915 q 756 799 756 850 q 753 768 756 783 l 621 147 m 507 157 l 635 758 q 597 800 643 800 l 425 800 q 374 756 382 800 l 247 164 q 254 129 243 144 q 282 114 265 114 l 451 114 q 507 157 497 114 z "},"R":{"ha":686,"x_min":99,"x_max":756,"o":"m 589 0 l 474 0 l 554 379 q 549 411 558 397 q 522 425 540 425 l 303 425 l 213 0 l 99 0 l 293 915 l 636 915 q 723 882 690 915 q 756 799 756 849 q 753 768 756 783 l 711 572 q 661 481 700 522 q 672 392 682 439 l 589 0 m 599 589 l 635 756 q 628 787 638 774 q 601 800 619 800 l 382 800 l 326 539 l 542 539 q 577 554 560 539 q 599 589 594 569 z "},"S":{"ha":686,"x_min":126,"x_max":756,"o":"m 204 232 q 242 222 228 232 q 254 196 257 211 l 246 157 q 282 114 236 114 l 456 114 q 507 160 497 114 l 554 382 q 518 425 564 425 l 335 425 q 250 458 283 425 q 217 540 217 490 q 221 572 217 556 l 263 768 q 326 872 275 828 q 439 915 376 915 l 636 915 q 722 883 688 915 q 756 799 756 850 q 753 768 756 783 l 742 719 l 626 719 l 635 758 q 597 800 643 800 l 425 800 q 374 756 382 800 l 336 582 q 372 539 326 539 l 556 539 q 642 507 608 539 q 675 424 675 475 q 672 392 675 408 l 621 147 q 556 44 607 88 q 442 0 504 0 l 244 0 q 160 33 193 0 q 126 115 126 65 q 131 147 126 131 l 140 196 q 204 232 147 232 z "},"T":{"ha":621,"x_min":235,"x_max":750,"o":"m 725 800 l 539 800 l 369 0 l 256 0 l 425 800 l 235 800 l 260 915 l 750 915 l 725 800 z "},"U":{"ha":686,"x_min":126,"x_max":783,"o":"m 621 147 q 554 42 607 85 q 442 0 501 0 l 244 0 q 160 33 193 0 q 126 115 126 65 q 131 147 126 131 l 293 915 l 407 915 l 246 157 q 282 114 236 114 l 451 114 q 507 157 497 114 l 668 915 l 783 915 l 621 147 z "},"V":{"ha":686,"x_min":163,"x_max":783,"o":"m 654 308 q 408 0 633 207 l 278 0 q 163 285 163 185 q 164 308 163 297 l 293 915 l 407 915 l 285 342 q 283 318 283 331 q 367 114 283 238 q 449 192 414 154 q 546 342 533 282 l 668 915 l 783 915 l 654 308 z "},"W":{"ha":897,"x_min":126,"x_max":993,"o":"m 831 147 q 764 42 817 85 q 651 0 711 0 l 539 0 q 454 29 492 0 q 358 0 408 0 l 244 0 q 160 33 193 0 q 126 115 126 65 q 131 147 126 131 l 293 915 l 407 915 l 246 157 q 282 114 236 114 l 369 114 q 425 157 415 114 l 586 915 l 700 915 l 539 157 q 547 126 535 138 q 575 114 558 114 l 663 114 q 718 157 708 114 l 879 915 l 993 915 l 831 147 z "},"X":{"ha":686,"x_min":99,"x_max":783,"o":"m 589 0 l 474 0 l 535 289 l 432 419 l 274 289 l 213 0 l 99 0 l 169 335 l 340 475 l 229 617 l 293 915 l 407 915 l 353 661 l 456 531 l 614 661 l 668 915 l 783 915 l 719 617 l 549 475 l 660 335 l 589 0 z "},"Y":{"ha":657,"x_min":201,"x_max":768,"o":"m 696 572 q 629 467 682 510 q 517 425 576 425 l 476 425 l 386 0 l 272 0 l 363 425 l 319 425 q 235 458 268 425 q 201 540 201 490 q 206 572 201 556 l 278 915 l 392 915 l 321 582 q 357 539 311 539 l 526 539 q 582 582 572 539 l 653 915 l 768 915 l 696 572 z "},"Z":{"ha":638,"x_min":83,"x_max":718,"o":"m 540 0 l 83 0 l 125 196 l 571 761 l 579 800 l 268 800 l 293 915 l 718 915 l 679 731 l 232 164 l 221 114 l 564 114 q 592 75 592 114 q 578 28 592 51 q 540 0 561 0 z "},"[":{"ha":435,"x_min":47,"x_max":556,"o":"m 285 -244 l 47 -244 l 318 1029 l 556 1029 l 531 915 l 407 915 l 185 -131 l 308 -131 l 285 -244 z "},"\\":{"ha":499,"x_min":258,"x_max":418,"o":"m 418 -179 l 304 -179 l 258 1029 l 374 1029 l 418 -179 z "},"]":{"ha":435,"x_min":47,"x_max":556,"o":"m 285 -244 l 47 -244 l 71 -131 l 194 -131 l 417 915 l 293 915 l 318 1029 l 556 1029 l 285 -244 z "},"^":{"ha":590,"x_min":260,"x_max":653,"o":"m 653 757 l 588 703 l 474 844 l 301 703 l 260 757 l 451 915 l 528 915 l 653 757 z "},"_":{"ha":408,"x_min":-26,"x_max":404,"o":"m 393 -99 l -26 -99 l -15 -49 l 404 -49 l 393 -99 z "},"`":{"ha":686,"x_min":383,"x_max":718,"o":"m 718 988 l 693 964 l 383 1067 l 486 1172 l 718 988 z "},"a":{"ha":674,"x_min":114,"x_max":690,"o":"m 496 164 l 518 265 q 513 297 521 283 q 486 311 504 311 l 313 311 q 257 268 267 311 l 233 160 q 240 128 231 142 q 267 114 249 114 l 439 114 q 474 129 457 114 q 496 164 492 144 m 319 556 q 293 594 293 556 q 308 644 293 618 q 343 669 322 669 l 571 669 q 658 636 625 669 q 690 553 690 603 q 688 522 690 538 l 608 147 q 542 42 594 85 q 429 0 489 0 l 232 0 q 146 33 178 0 q 114 115 114 65 q 118 147 114 131 l 146 278 q 210 383 158 340 q 322 425 263 425 l 519 425 q 551 422 542 425 l 569 510 q 538 556 579 556 l 319 556 z "},"b":{"ha":686,"x_min":126,"x_max":703,"o":"m 418 669 l 583 669 q 669 638 636 669 q 703 554 703 606 q 700 522 703 539 l 621 147 q 556 44 607 88 q 442 0 504 0 l 244 0 q 160 33 193 0 q 126 115 126 65 q 131 147 126 131 l 293 915 l 407 915 l 247 164 q 254 129 243 144 q 282 114 265 114 l 456 114 q 507 160 497 114 l 582 513 q 546 556 592 556 l 396 556 q 371 593 371 556 q 384 643 371 617 q 418 669 397 669 z "},"c":{"ha":656,"x_min":126,"x_max":686,"o":"m 672 474 q 608 438 665 438 q 569 448 585 438 q 557 474 554 458 l 565 513 q 529 556 575 556 l 374 556 q 321 510 331 556 l 247 164 q 254 129 243 144 q 282 114 265 114 l 586 114 l 576 65 q 524 4 565 15 q 425 0 508 0 l 244 0 q 158 31 190 0 q 126 113 126 63 q 131 147 126 129 l 210 522 q 273 626 222 583 q 386 669 324 669 l 567 669 q 653 638 619 669 q 686 554 686 606 q 683 522 686 539 l 672 474 z "},"d":{"ha":686,"x_min":126,"x_max":783,"o":"m 553 669 q 575 613 588 669 q 528 556 564 556 l 378 556 q 322 513 332 556 l 247 160 q 253 128 244 142 q 279 114 261 114 l 453 114 q 488 129 471 114 q 510 164 506 144 l 669 915 l 783 915 l 621 147 q 555 42 607 85 q 443 0 503 0 l 246 0 q 159 33 192 0 q 126 117 126 67 q 131 147 126 132 l 210 522 q 276 627 224 585 q 388 669 328 669 l 553 669 z "},"e":{"ha":679,"x_min":126,"x_max":703,"o":"m 649 278 l 338 278 q 313 317 313 278 q 327 366 313 340 q 363 392 342 392 l 557 392 l 582 510 q 550 556 592 556 l 376 556 q 342 541 358 556 q 321 507 325 526 l 246 160 q 252 128 243 142 q 279 114 261 114 l 604 114 l 596 71 q 542 7 585 19 q 442 0 519 0 l 244 0 q 158 33 190 0 q 126 115 126 65 q 131 147 126 131 l 210 522 q 275 628 224 586 q 386 669 326 669 l 583 669 q 670 636 638 669 q 703 553 703 603 q 700 522 703 538 l 649 278 z "},"f":{"ha":526,"x_min":132,"x_max":603,"o":"m 599 504 q 550 451 588 451 l 342 451 l 246 0 l 132 0 l 228 451 l 172 451 l 196 561 l 251 561 l 296 768 q 326 826 301 796 q 374 865 351 856 l 581 953 q 586 910 586 932 q 561 835 586 860 l 433 781 q 407 756 410 769 l 365 561 l 574 561 q 597 542 592 561 q 599 504 603 524 z "},"g":{"ha":688,"x_min":126,"x_max":703,"o":"m 571 -87 l 325 -290 q 303 -299 317 -299 q 265 -281 282 -299 q 249 -240 249 -262 q 263 -210 249 -221 l 464 -43 l 582 507 q 575 541 586 526 q 546 556 564 556 l 374 556 q 321 510 331 556 l 246 157 q 282 114 236 114 l 432 114 q 460 75 460 114 q 446 28 460 51 q 408 0 429 0 l 244 0 q 160 33 193 0 q 126 115 126 65 q 131 147 126 131 l 210 522 q 273 626 222 583 q 386 669 324 669 l 583 669 q 669 638 636 669 q 703 554 703 606 q 700 522 703 539 l 571 -87 z "},"h":{"ha":686,"x_min":99,"x_max":703,"o":"m 528 -12 q 490 -1 504 -12 q 479 25 475 10 l 582 513 q 573 541 586 526 q 546 556 560 556 q 313 474 532 556 l 213 0 l 99 0 l 293 915 l 407 915 l 340 599 q 471 644 406 621 q 599 675 563 675 q 675 640 647 675 q 703 554 703 604 q 700 522 703 538 l 594 25 q 528 -12 586 -12 z "},"i":{"ha":350,"x_min":124,"x_max":413,"o":"m 247 139 l 294 79 q 299 67 299 74 q 267 13 299 40 q 215 -8 239 -8 q 197 -1 203 -8 l 124 92 l 246 669 l 360 669 l 247 139 m 376 757 q 315 733 347 733 q 253 796 253 733 q 289 868 253 838 q 349 892 317 892 q 394 874 376 892 q 413 828 413 856 q 376 757 413 786 z "},"j":{"ha":375,"x_min":14,"x_max":469,"o":"m 90 -258 q 68 -265 81 -265 q 30 -247 46 -265 q 14 -207 14 -229 q 26 -178 14 -189 l 139 -85 l 299 669 l 414 669 l 251 -99 q 201 -164 244 -128 l 90 -258 m 432 761 q 371 738 404 738 q 310 800 310 738 q 344 872 310 842 q 406 896 372 896 q 451 878 433 896 q 469 832 469 860 q 432 761 469 790 z "},"k":{"ha":647,"x_min":99,"x_max":689,"o":"m 576 0 l 522 0 l 286 300 l 276 300 l 213 0 l 99 0 l 293 915 l 407 915 l 301 415 l 571 669 l 689 669 l 679 624 l 397 363 l 600 108 l 576 0 z "},"l":{"ha":356,"x_min":118,"x_max":407,"o":"m 118 92 l 293 914 l 407 914 l 242 139 l 289 79 q 293 67 293 74 q 261 13 293 40 q 210 -8 233 -8 q 192 -1 197 -8 l 118 92 z "},"m":{"ha":899,"x_min":99,"x_max":915,"o":"m 807 26 q 742 -11 799 -11 q 703 0 718 -11 q 692 26 689 11 l 794 513 q 758 556 804 556 l 626 556 l 508 0 l 394 0 l 513 556 l 331 556 l 213 0 l 99 0 l 240 669 l 796 669 q 882 638 849 669 q 915 554 915 606 q 913 522 915 539 l 807 26 z "},"n":{"ha":686,"x_min":99,"x_max":703,"o":"m 594 28 q 531 -10 588 -10 q 494 -1 510 -10 q 479 28 475 10 l 582 513 q 546 556 592 556 l 331 556 l 213 0 l 99 0 l 240 669 l 583 669 q 669 638 636 669 q 703 554 703 606 q 700 522 703 539 l 594 28 z "},"o":{"ha":686,"x_min":126,"x_max":703,"o":"m 621 147 q 554 42 607 85 q 442 0 501 0 l 244 0 q 158 31 190 0 q 126 113 126 63 q 131 147 126 129 l 210 522 q 273 626 222 583 q 386 669 324 669 l 583 669 q 669 638 636 669 q 703 554 703 606 q 700 522 703 539 l 621 147 m 507 157 l 582 513 q 546 556 592 556 l 374 556 q 321 510 331 556 l 247 164 q 254 129 243 144 q 282 114 265 114 l 451 114 q 507 157 497 114 z "},"p":{"ha":686,"x_min":46,"x_max":703,"o":"m 276 -3 q 254 54 242 -3 q 301 111 265 111 l 451 111 q 507 154 497 111 l 582 507 q 576 539 585 525 q 550 553 568 553 l 376 553 q 341 538 358 553 q 319 503 324 522 l 160 -249 l 46 -249 l 208 519 q 274 624 222 582 q 386 667 326 667 l 583 667 q 670 633 638 667 q 703 550 703 600 q 699 519 703 535 l 619 144 q 553 40 606 82 q 442 -3 501 -3 l 276 -3 z "},"q":{"ha":686,"x_min":126,"x_max":703,"o":"m 538 -244 l 422 -244 l 474 3 q 442 0 464 0 l 244 0 q 160 33 193 0 q 126 115 126 65 q 131 147 126 131 l 210 522 q 273 626 222 583 q 386 669 324 669 l 583 669 q 669 638 636 669 q 703 554 703 606 q 700 522 703 539 l 538 -244 m 507 160 l 582 507 q 575 541 586 526 q 546 556 564 556 l 374 556 q 321 510 331 556 l 246 157 q 282 114 236 114 l 456 114 q 507 160 497 114 z "},"r":{"ha":593,"x_min":99,"x_max":672,"o":"m 543 474 l 551 513 q 515 556 561 556 l 374 556 q 321 510 331 556 l 213 0 l 99 0 l 210 522 q 273 626 222 583 q 386 669 324 669 l 553 669 q 639 638 606 669 q 672 554 672 606 q 669 522 672 539 l 658 474 q 594 436 651 436 q 557 446 574 436 q 543 474 540 456 z "},"s":{"ha":661,"x_min":96,"x_max":678,"o":"m 431 114 q 482 160 472 114 l 500 239 q 463 282 508 282 l 293 282 q 210 318 243 282 q 178 407 178 354 q 182 442 178 425 l 199 522 q 262 626 211 583 q 375 669 313 669 l 558 669 q 644 638 611 669 q 678 554 678 606 q 675 522 678 539 l 669 496 l 554 496 l 557 513 q 521 556 567 556 l 363 556 q 310 510 319 556 l 297 451 q 303 413 293 431 q 332 396 314 396 l 501 396 q 586 363 553 396 q 619 279 619 331 q 617 249 619 264 l 596 147 q 531 44 582 88 q 417 0 479 0 l 233 0 q 138 3 151 0 q 96 47 96 11 q 97 68 96 57 l 107 114 l 431 114 z "},"t":{"ha":531,"x_min":183,"x_max":550,"o":"m 510 65 q 454 4 499 15 q 353 0 439 0 l 304 0 q 217 33 250 0 q 185 117 185 67 q 189 147 185 132 l 275 557 l 183 557 l 207 669 l 299 669 l 324 786 l 438 786 l 413 669 l 550 669 l 526 557 l 389 557 l 304 160 q 310 128 301 142 q 338 114 319 114 l 519 114 l 510 65 z "},"u":{"ha":686,"x_min":126,"x_max":731,"o":"m 589 0 l 244 0 q 160 33 193 0 q 126 115 126 65 q 131 147 126 131 l 240 669 l 354 669 l 246 157 q 282 114 236 114 l 497 114 l 615 669 l 731 669 l 589 0 z "},"v":{"ha":675,"x_min":160,"x_max":783,"o":"m 490 0 l 357 0 q 232 50 288 0 q 160 236 160 115 q 172 339 160 283 l 242 669 l 356 669 l 286 340 q 278 263 278 299 q 331 133 278 175 q 418 104 368 104 l 660 669 l 783 669 l 490 0 z "},"w":{"ha":896,"x_min":126,"x_max":940,"o":"m 831 147 q 764 42 817 85 q 651 0 711 0 l 539 0 q 454 29 492 0 q 358 0 408 0 l 244 0 q 160 33 193 0 q 126 115 126 65 q 131 147 126 131 l 240 669 l 354 669 l 246 157 q 282 114 236 114 l 369 114 q 425 157 415 114 l 533 669 l 647 669 l 539 157 q 547 126 535 138 q 575 114 558 114 l 663 114 q 718 157 708 114 l 826 669 l 940 669 l 831 147 z "},"x":{"ha":678,"x_min":79,"x_max":747,"o":"m 599 0 l 483 0 l 499 72 l 403 300 l 208 72 l 193 0 l 79 0 l 101 107 l 310 354 l 214 669 l 339 669 l 422 392 l 621 669 l 747 669 l 518 354 l 621 107 l 599 0 z "},"y":{"ha":683,"x_min":160,"x_max":785,"o":"m 429 -165 l 292 -258 q 268 -265 281 -265 q 225 -218 225 -265 q 246 -178 225 -192 l 326 -121 l 378 0 l 361 0 q 222 54 275 0 q 160 238 160 117 q 175 364 160 294 l 239 669 l 361 669 l 296 365 q 283 263 283 307 q 425 107 283 107 l 661 669 l 785 669 l 429 -165 z "},"z":{"ha":653,"x_min":99,"x_max":681,"o":"m 542 0 l 542 0 l 99 0 l 140 196 l 536 522 l 543 556 l 232 556 l 256 669 l 681 669 l 639 474 l 244 147 l 236 114 l 565 114 q 592 75 592 114 q 578 28 592 51 q 542 0 563 0 z "},"{":{"ha":521,"x_min":160,"x_max":643,"o":"m 372 -244 l 281 -244 q 192 -213 225 -244 q 160 -132 160 -182 q 164 -99 160 -115 l 244 283 l 178 369 l 193 446 l 299 533 l 372 882 q 436 985 385 942 q 551 1029 488 1029 l 643 1029 l 618 915 l 536 915 q 483 869 493 915 l 403 490 l 301 407 l 368 325 l 281 -82 q 289 -116 278 -101 q 317 -131 300 -131 l 396 -131 l 372 -244 z "},"|":{"ha":376,"x_min":79,"x_max":471,"o":"m 193 -244 l 79 -244 l 357 1063 l 471 1063 l 193 -244 z "},"}":{"ha":521,"x_min":47,"x_max":526,"o":"m 503 369 l 396 283 l 315 -99 q 251 -203 301 -162 q 138 -244 201 -244 l 47 -244 l 71 -131 l 149 -131 q 183 -116 167 -131 q 204 -82 200 -101 l 292 325 l 392 407 l 326 490 l 407 869 q 402 901 411 888 q 374 915 393 915 l 293 915 l 318 1029 l 408 1029 q 494 997 463 1029 q 526 914 526 964 q 524 882 526 899 l 450 533 l 518 446 l 503 369 z "},"~":{"ha":714,"x_min":264,"x_max":804,"o":"m 796 842 q 751 771 786 800 q 675 742 715 742 l 572 742 q 508 791 528 742 q 457 840 489 840 l 386 840 q 349 811 356 840 l 342 776 l 264 776 l 272 817 q 317 887 281 858 q 394 915 353 915 l 499 915 q 558 867 538 915 q 610 818 579 818 l 682 818 q 718 846 713 818 l 726 882 l 804 882 l 796 842 z "},"":{"ha":694,"x_min":0,"x_max":0,"o":""},"":{"ha":686,"x_min":119,"x_max":756,"o":"m 176 594 l 225 594 l 263 768 q 326 872 275 828 q 439 915 376 915 l 636 915 q 722 883 688 915 q 756 799 756 850 q 753 768 756 783 l 742 719 l 626 719 l 635 758 q 597 800 643 800 l 425 800 q 374 756 382 800 l 339 594 l 640 594 l 619 499 l 318 499 l 303 425 l 604 425 l 583 329 l 282 329 l 247 164 q 254 129 243 144 q 282 114 265 114 l 451 114 q 507 157 497 114 l 515 196 q 579 232 522 232 q 618 222 603 232 q 631 196 633 211 l 621 147 q 554 42 607 85 q 442 0 501 0 l 244 0 q 158 31 190 0 q 126 113 126 63 q 131 147 126 129 l 168 329 l 119 329 l 140 425 l 189 425 l 204 499 l 156 499 l 176 594 z "},"‚":{"ha":310,"x_min":46,"x_max":272,"o":"m 272 131 l 96 -175 l 46 -175 l 142 131 l 272 131 z "},"ƒ":{"ha":911,"x_min":49,"x_max":1036,"o":"m 1026 768 l 1007 719 l 893 719 l 908 758 q 911 772 911 765 q 876 800 911 800 l 801 800 q 743 756 760 800 l 678 589 l 828 589 l 783 474 l 633 474 l 411 -99 q 329 -201 388 -158 q 208 -244 271 -244 l 151 -244 q 76 -219 104 -244 q 49 -153 49 -194 q 60 -99 49 -126 l 81 -49 l 194 -49 l 176 -89 q 174 -103 174 -96 q 207 -131 174 -131 l 242 -131 q 303 -85 285 -131 l 518 474 l 431 474 l 475 589 l 563 589 l 635 768 q 717 872 658 828 q 839 915 776 915 l 936 915 q 1009 890 982 915 q 1036 822 1036 864 q 1026 768 1036 797 z "},"„":{"ha":513,"x_min":46,"x_max":475,"o":"m 475 131 l 299 -175 l 249 -175 l 344 131 l 475 131 m 272 131 l 96 -175 l 46 -175 l 142 131 l 272 131 z "},"…":{"ha":918,"x_min":126,"x_max":840,"o":"m 813 0 l 682 0 l 710 131 l 840 131 l 813 0 m 535 0 l 404 0 l 432 131 l 563 131 l 535 0 m 257 0 l 126 0 l 154 131 l 285 131 l 257 0 z "},"†":{"ha":621,"x_min":231,"x_max":678,"o":"m 654 621 l 496 621 l 396 147 l 282 147 l 382 621 l 231 621 l 254 735 l 406 735 l 444 915 l 558 915 l 519 735 l 678 735 l 654 621 z "},"‡":{"ha":621,"x_min":199,"x_max":689,"o":"m 622 474 l 464 474 l 396 147 l 282 147 l 350 474 l 199 474 l 224 589 l 375 589 l 392 669 l 240 669 l 265 785 l 417 785 l 444 915 l 558 915 l 531 785 l 689 785 l 664 669 l 506 669 l 489 589 l 647 589 l 622 474 z "},"ˆ":{"ha":686,"x_min":364,"x_max":757,"o":"m 757 1018 l 693 964 l 578 1106 l 407 964 l 364 1018 l 556 1176 l 632 1176 l 757 1018 z "},"‰":{"ha":1163,"x_min":190,"x_max":1114,"o":"m 1079 64 q 1053 18 1074 36 q 1007 0 1032 0 l 853 0 q 803 49 803 0 q 804 64 803 56 l 838 219 q 864 263 842 244 q 913 281 886 281 l 1067 281 q 1114 233 1114 281 q 1113 219 1114 226 l 1079 64 m 1019 81 l 1046 203 q 1035 219 1050 219 l 917 219 q 897 203 901 219 l 871 81 q 885 64 868 64 l 1001 64 q 1019 81 1017 64 m 467 450 q 440 406 461 424 q 394 388 419 388 l 240 388 q 190 436 190 388 q 192 450 190 443 l 224 604 q 252 649 229 629 q 300 669 275 669 l 454 669 q 501 619 501 669 q 499 604 501 613 l 467 450 m 407 465 l 433 589 q 421 604 436 604 l 303 604 q 285 589 288 604 l 258 465 q 272 450 256 450 l 389 450 q 407 465 404 450 m 751 656 l 265 -17 l 215 13 l 701 685 l 751 656 m 747 64 q 721 18 742 36 q 675 0 700 0 l 521 0 q 472 49 472 0 q 474 64 472 56 l 507 219 q 533 262 511 243 q 581 281 556 281 l 735 281 q 782 233 782 281 q 781 219 782 226 l 747 64 m 689 81 l 715 203 q 703 219 719 219 l 585 219 q 565 203 569 219 l 539 81 q 553 64 536 64 l 669 64 q 689 81 686 64 z "},"Š":{"ha":686,"x_min":124,"x_max":779,"o":"m 204 232 q 140 196 149 232 l 131 147 q 129 89 124 115 q 151 42 135 63 q 191 11 167 22 q 244 0 215 0 l 442 0 q 502 12 472 0 q 556 44 532 24 q 597 91 579 64 q 621 147 614 118 l 672 392 q 673 449 679 422 q 651 497 667 476 q 610 528 635 517 q 556 539 585 539 l 372 539 q 336 582 328 539 l 374 756 q 425 800 382 800 l 597 800 q 635 758 643 800 l 626 719 l 742 719 l 753 768 q 752 826 758 799 q 730 873 746 853 q 690 904 714 893 q 636 915 665 915 l 439 915 q 378 903 407 915 q 326 872 350 892 q 285 824 301 851 q 263 768 268 797 l 221 572 q 219 514 214 540 q 241 467 225 488 q 281 436 257 447 q 335 425 306 425 l 518 425 q 554 382 564 425 l 507 160 q 489 128 504 142 q 456 114 474 114 l 282 114 q 246 157 238 114 l 254 196 q 204 232 263 232 m 511 964 l 588 964 l 779 1122 l 736 1176 l 564 1035 l 450 1176 l 386 1122 l 511 964 z "},"‹":{"ha":618,"x_min":214,"x_max":558,"o":"m 472 131 l 451 114 l 214 293 l 231 371 l 544 549 l 558 533 l 314 332 l 472 131 z "},"Œ":{"ha":1063,"x_min":126,"x_max":1158,"o":"m 497 114 l 643 800 l 425 800 q 374 756 382 800 l 247 164 q 254 129 243 144 q 282 114 265 114 l 497 114 m 964 0 l 244 0 q 158 31 190 0 q 126 113 126 63 q 131 147 126 129 l 263 768 q 326 872 275 828 q 439 915 376 915 l 1158 915 l 1133 800 l 758 800 l 703 539 l 997 539 l 974 425 l 679 425 l 613 114 l 988 114 q 1015 75 1015 114 q 1001 28 1015 51 q 964 0 985 0 z "},"":{"ha":638,"x_min":83,"x_max":756,"o":"m 590 57 q 564 114 601 114 l 221 114 l 232 164 l 679 731 l 718 915 l 293 915 l 268 800 l 579 800 l 571 761 l 125 196 l 83 0 l 540 0 q 590 57 578 0 m 488 964 l 564 964 l 756 1122 l 713 1176 l 540 1035 l 426 1176 l 363 1122 l 488 964 z "},"‘":{"ha":310,"x_min":194,"x_max":422,"o":"m 422 915 l 325 610 l 194 610 l 371 915 l 422 915 z "},"’":{"ha":310,"x_min":213,"x_max":439,"o":"m 439 915 l 263 610 l 213 610 l 308 915 l 439 915 z "},"“":{"ha":513,"x_min":194,"x_max":624,"o":"m 624 915 l 528 610 l 397 610 l 574 915 l 624 915 m 422 915 l 325 610 l 194 610 l 371 915 l 422 915 z "},"”":{"ha":513,"x_min":213,"x_max":642,"o":"m 642 915 l 465 610 l 415 610 l 511 915 l 642 915 m 439 915 l 263 610 l 213 610 l 308 915 l 439 915 z "},"•":{"ha":529,"x_min":179,"x_max":499,"o":"m 451 249 q 393 197 440 197 l 221 197 q 190 212 200 197 q 183 249 179 226 l 221 422 q 242 457 225 442 q 279 472 260 472 l 451 472 q 489 422 499 472 l 451 249 z "},"–":{"ha":850,"x_min":135,"x_max":861,"o":"m 838 278 l 135 278 l 158 392 l 861 392 l 838 278 z "},"—":{"ha":1013,"x_min":135,"x_max":1025,"o":"m 1001 278 l 135 278 l 158 392 l 1025 392 l 1001 278 z "},"˜":{"ha":686,"x_min":321,"x_max":813,"o":"m 804 1064 q 760 993 794 1022 q 685 964 725 964 l 624 964 q 546 1013 571 964 q 492 1063 521 1063 l 443 1063 q 406 1033 413 1063 l 399 999 l 321 999 l 329 1039 q 374 1109 338 1081 q 451 1138 410 1138 l 513 1138 q 588 1089 561 1138 q 644 1040 615 1040 l 692 1040 q 728 1068 722 1040 l 736 1104 l 813 1104 l 804 1064 z "},"™":{"ha":751,"x_min":253,"x_max":864,"o":"m 825 669 l 768 669 l 804 836 q 785 858 808 858 l 738 858 l 697 669 l 640 669 l 681 858 l 611 858 l 571 669 l 514 669 l 567 915 l 804 915 q 847 899 831 915 q 864 857 864 882 q 863 842 864 850 l 825 669 m 497 858 l 404 858 l 364 669 l 307 669 l 347 858 l 253 858 l 265 915 l 510 915 l 497 858 z "},"š":{"ha":661,"x_min":88,"x_max":718,"o":"m 107 114 l 97 68 q 131 4 88 17 q 233 0 144 0 l 417 0 q 477 12 447 0 q 531 44 507 24 q 572 91 554 64 q 596 147 589 118 l 617 249 q 617 306 624 279 q 595 353 611 333 q 555 385 579 374 q 501 396 531 396 l 332 396 q 303 413 314 396 q 297 451 293 431 l 310 510 q 363 556 319 556 l 521 556 q 557 513 567 556 l 554 496 l 669 496 l 675 522 q 676 580 682 553 q 653 627 669 607 q 613 658 638 647 q 558 669 588 669 l 375 669 q 315 658 343 669 q 262 626 286 646 q 221 580 238 607 q 199 522 204 553 l 182 442 q 200 329 167 376 q 293 282 233 282 l 463 282 q 500 239 508 282 l 482 160 q 464 128 479 142 q 431 114 449 114 l 107 114 m 449 735 l 525 735 l 718 893 l 675 947 l 503 806 l 389 947 l 325 893 l 449 735 z "},"›":{"ha":618,"x_min":201,"x_max":544,"o":"m 528 293 l 213 114 l 201 131 l 444 332 l 288 533 l 306 549 l 544 371 l 528 293 z "},"œ":{"ha":1063,"x_min":126,"x_max":1078,"o":"m 974 65 q 919 8 964 21 q 817 0 892 0 l 621 0 q 538 31 569 0 q 442 0 493 0 l 244 0 q 158 31 190 0 q 126 113 126 63 q 131 147 126 129 l 210 522 q 273 626 222 583 q 386 669 324 669 l 583 669 q 667 639 633 669 q 763 669 713 669 l 958 669 q 1045 636 1013 669 q 1078 553 1078 603 q 1075 522 1078 538 l 1024 278 l 649 278 l 622 160 q 654 114 613 114 l 983 114 l 974 65 m 933 392 l 958 510 q 925 556 968 556 l 751 556 q 718 541 735 556 q 697 507 701 526 l 672 392 l 933 392 m 507 157 l 582 513 q 546 556 592 556 l 374 556 q 321 510 331 556 l 247 164 q 254 129 243 144 q 282 114 265 114 l 451 114 q 507 157 497 114 z "},"":{"ha":653,"x_min":99,"x_max":714,"o":"m 590 57 q 565 114 601 114 l 236 114 l 244 147 l 639 474 l 681 669 l 256 669 l 232 556 l 543 556 l 536 522 l 140 196 l 99 0 l 542 0 q 590 57 578 0 m 444 735 l 521 735 l 714 893 l 671 947 l 499 806 l 385 947 l 321 893 l 444 735 z "},"Ÿ":{"ha":686,"x_min":217,"x_max":785,"o":"m 747 988 q 686 964 719 964 q 624 1026 624 964 q 660 1099 624 1068 q 721 1122 688 1122 q 767 1104 749 1122 q 785 1058 785 1086 q 747 988 785 1017 m 469 988 q 408 964 442 964 q 346 1026 346 964 q 382 1099 346 1068 q 443 1122 410 1122 q 489 1104 471 1122 q 507 1058 507 1086 q 469 988 507 1017 m 711 572 q 644 467 697 510 q 532 425 592 425 l 492 425 l 401 0 l 288 0 l 378 425 l 335 425 q 250 458 283 425 q 217 540 217 490 q 221 572 217 556 l 293 915 l 407 915 l 336 582 q 372 539 326 539 l 542 539 q 597 582 588 539 l 668 915 l 783 915 l 711 572 z "}," ":{"ha":408,"x_min":0,"x_max":0,"o":""},"¡":{"ha":360,"x_min":63,"x_max":386,"o":"m 358 539 l 228 539 l 256 669 l 386 669 l 358 539 m 193 -244 l 63 -244 l 200 408 l 331 408 l 193 -244 z "},"¢":{"ha":651,"x_min":161,"x_max":699,"o":"m 621 313 q 556 206 607 247 q 460 169 510 169 l 422 169 l 406 94 l 290 94 l 307 169 l 275 169 q 189 207 221 169 q 161 283 161 240 q 164 304 161 294 l 240 664 q 299 759 251 719 q 403 799 346 799 l 440 799 l 457 874 l 572 874 l 556 799 l 588 799 q 667 769 636 799 q 699 693 699 739 q 696 664 699 679 l 683 610 l 558 610 l 567 647 q 560 674 569 664 q 535 685 550 685 l 408 685 q 358 642 368 685 l 293 335 q 298 304 290 318 q 322 290 306 290 l 447 290 q 500 331 490 290 l 507 367 l 632 367 l 621 313 z "},"£":{"ha":817,"x_min":99,"x_max":804,"o":"m 719 0 l 99 0 l 122 114 l 168 114 q 219 160 210 114 l 285 465 l 197 465 l 222 581 l 310 581 l 350 768 q 414 872 363 828 q 528 915 465 915 l 685 915 q 770 883 736 915 q 804 799 804 850 q 801 768 804 783 l 790 719 l 675 719 l 683 758 q 647 800 692 800 l 513 800 q 461 756 469 800 l 424 581 l 575 581 l 550 465 l 399 465 l 332 147 q 321 114 328 133 l 743 114 l 719 0 z "},"¤":{"ha":850,"x_min":128,"x_max":865,"o":"m 758 83 l 681 19 l 635 78 q 582 67 608 67 l 294 67 q 249 78 276 67 l 178 19 l 128 83 l 203 146 q 203 185 200 167 l 267 485 q 281 525 271 500 q 235 586 268 543 l 311 650 q 357 592 335 621 q 408 603 385 603 l 696 603 q 744 592 726 603 l 814 650 l 865 586 l 792 526 q 789 485 794 510 l 725 185 q 710 144 719 160 l 758 83 m 622 207 l 678 469 q 650 503 685 503 l 404 503 q 361 467 369 503 l 308 213 q 338 174 300 174 l 581 174 q 622 207 615 174 z "},"¥":{"ha":686,"x_min":204,"x_max":783,"o":"m 719 617 l 535 464 l 638 464 l 624 399 l 486 399 l 472 333 l 610 333 l 596 268 l 458 268 l 401 0 l 288 0 l 344 268 l 204 268 l 218 333 l 358 333 l 372 399 l 232 399 l 246 464 l 349 464 l 229 617 l 293 915 l 407 915 l 353 661 l 456 531 l 614 661 l 668 915 l 783 915 l 719 617 z "},"¦":{"ha":376,"x_min":131,"x_max":439,"o":"m 439 915 l 325 915 l 251 568 l 365 568 l 439 915 m 318 347 l 204 347 l 131 0 l 244 0 l 318 347 z "},"§":{"ha":726,"x_min":89,"x_max":865,"o":"m 865 947 l 756 719 l 642 719 l 660 758 q 664 776 664 768 q 633 800 664 800 l 533 800 q 472 756 493 800 l 428 664 q 422 646 422 654 q 453 621 422 621 l 676 621 q 769 538 769 621 q 751 474 769 508 l 593 147 q 501 44 563 88 q 374 0 436 0 l 251 0 q 221 3 240 0 l 204 -33 l 89 -33 l 199 196 l 313 196 l 294 157 q 290 139 290 147 q 319 114 290 114 l 419 114 q 483 160 463 114 l 526 251 q 532 269 532 261 q 501 294 532 294 l 278 294 q 185 376 185 294 q 203 442 185 407 l 364 768 q 456 872 393 828 q 581 915 518 915 l 703 915 q 732 911 719 915 l 750 947 l 865 947 m 633 464 q 638 482 638 474 q 608 507 638 507 l 385 507 q 350 510 372 507 q 321 451 342 494 q 317 433 317 442 q 346 408 317 408 l 569 408 q 604 404 588 408 l 633 464 z "},"¨":{"ha":686,"x_min":346,"x_max":785,"o":"m 747 988 q 686 964 719 964 q 624 1026 624 964 q 660 1099 624 1068 q 721 1122 688 1122 q 767 1104 749 1122 q 785 1058 785 1086 q 747 988 785 1017 m 469 988 q 408 964 442 964 q 346 1026 346 964 q 382 1099 346 1068 q 443 1122 410 1122 q 489 1104 471 1122 q 507 1058 507 1086 q 469 988 507 1017 z "},"©":{"ha":850,"x_min":153,"x_max":892,"o":"m 808 269 q 743 165 796 207 q 631 122 690 122 l 271 122 q 185 153 217 122 q 153 235 153 185 q 156 269 153 251 l 236 646 q 300 749 249 706 q 413 793 351 793 l 772 793 q 858 760 825 793 q 892 678 892 728 q 889 646 892 663 l 808 269 m 722 251 l 811 664 q 803 698 815 685 q 769 711 790 711 l 381 711 q 319 660 331 711 l 235 260 q 242 221 229 238 q 275 204 256 204 l 661 204 q 722 251 713 204 m 653 367 q 612 299 644 326 q 540 272 579 272 l 418 272 q 342 344 342 272 q 344 367 342 356 l 382 544 q 423 610 390 583 q 496 638 456 638 l 618 638 q 672 617 651 638 q 693 565 693 597 q 690 544 693 556 l 685 515 l 613 515 l 617 538 q 594 565 624 565 l 485 565 q 453 536 460 565 l 419 376 q 442 344 413 344 l 547 344 q 582 372 576 344 l 588 396 l 660 396 l 653 367 z "},"ª":{"ha":474,"x_min":200,"x_max":560,"o":"m 511 617 q 474 557 504 581 q 411 533 444 533 l 300 533 q 249 552 268 533 q 231 600 231 571 q 232 617 231 608 l 249 692 q 285 751 256 728 q 351 775 315 775 l 463 775 q 479 772 476 775 l 490 824 q 474 850 496 850 l 374 850 q 342 825 347 850 l 338 803 l 272 803 l 278 832 q 316 891 286 867 q 381 915 346 915 l 492 915 q 560 850 560 915 q 557 832 560 840 l 511 617 m 449 626 l 461 683 q 444 710 467 710 l 344 710 q 313 686 318 710 l 299 624 q 319 599 294 599 l 417 599 q 449 626 443 599 m 478 461 l 200 461 l 208 500 l 486 500 l 478 461 z "},"«":{"ha":769,"x_min":210,"x_max":840,"o":"m 746 144 l 724 126 l 463 322 l 481 408 l 825 604 l 840 586 l 572 364 l 746 144 m 494 144 l 472 126 l 210 322 l 228 408 l 574 604 l 589 586 l 321 364 l 494 144 z "},"¬":{"ha":696,"x_min":181,"x_max":632,"o":"m 565 0 l 474 0 l 521 222 l 181 222 l 200 314 l 632 314 l 565 0 z "},"­":{"ha":686,"x_min":217,"x_max":617,"o":"m 593 278 l 217 278 l 240 392 l 617 392 l 593 278 z "},"®":{"ha":850,"x_min":150,"x_max":888,"o":"m 804 268 q 739 163 790 206 q 628 121 688 121 l 269 121 q 183 152 215 121 q 150 235 150 183 q 154 268 150 250 l 233 640 q 298 745 246 701 q 413 789 350 789 l 771 789 q 854 757 821 789 q 888 674 888 725 q 883 640 888 657 l 804 268 m 721 251 l 808 661 q 799 693 813 681 q 765 706 786 706 l 378 706 q 319 656 331 706 l 236 258 q 243 219 231 236 q 274 203 256 203 l 658 203 q 721 251 711 203 m 629 271 l 557 271 l 578 368 q 560 396 585 396 l 422 396 l 394 271 l 322 271 l 400 633 l 615 633 q 669 613 649 633 q 689 561 689 592 q 688 543 689 551 l 676 489 q 647 431 669 457 q 653 376 658 401 l 629 271 m 606 499 l 614 533 q 594 564 619 564 l 457 564 l 438 468 l 572 468 q 606 499 600 468 z "},"¯":{"ha":686,"x_min":304,"x_max":810,"o":"m 794 964 l 304 964 l 319 1040 l 810 1040 l 794 964 z "},"°":{"ha":415,"x_min":251,"x_max":501,"o":"m 474 740 q 415 689 463 689 l 293 689 q 262 703 272 689 q 256 740 251 718 l 282 864 q 303 900 286 885 q 342 915 321 915 l 464 915 q 501 876 501 915 q 500 864 501 871 l 474 740 m 428 753 l 449 851 q 439 864 451 864 l 343 864 q 329 851 332 864 l 308 753 q 318 740 306 740 l 413 740 q 428 753 425 740 z "},"±":{"ha":686,"x_min":104,"x_max":689,"o":"m 665 360 l 476 360 l 436 172 l 322 172 l 363 360 l 175 360 l 199 474 l 386 474 l 426 661 l 540 661 l 500 474 l 689 474 l 665 360 m 594 25 l 104 25 l 128 139 l 618 139 l 594 25 z "},"²":{"ha":564,"x_min":182,"x_max":646,"o":"m 574 506 l 489 506 l 483 479 l 286 479 l 307 574 q 327 601 313 597 q 349 606 342 606 l 486 606 q 530 615 508 606 q 570 638 551 624 q 602 673 589 653 q 619 717 615 693 l 638 806 q 622 883 646 850 q 551 915 597 915 l 404 915 q 361 907 383 915 q 320 883 339 899 q 288 848 301 868 q 269 806 274 828 l 263 768 l 349 768 l 354 799 q 374 826 358 822 q 396 831 389 831 l 525 831 q 544 825 532 831 q 551 796 557 819 l 536 722 q 517 696 532 700 q 494 692 501 692 l 357 692 q 313 683 335 692 q 272 659 290 674 q 240 624 253 644 q 222 581 226 603 l 182 393 l 550 393 l 574 506 z "},"³":{"ha":564,"x_min":200,"x_max":647,"o":"m 206 503 q 205 460 200 479 q 222 425 210 440 q 253 401 235 410 q 293 393 272 393 l 440 393 q 485 402 463 393 q 525 426 507 411 q 556 461 543 442 q 574 503 569 481 l 594 603 q 576 668 603 642 q 606 697 593 681 q 622 733 618 714 l 638 806 q 622 883 647 850 q 551 915 597 915 l 404 915 q 361 907 383 915 q 320 883 339 899 q 288 848 301 868 q 269 806 274 828 l 263 768 l 349 768 l 354 797 q 374 825 358 821 q 396 829 389 829 l 524 829 q 542 824 536 829 q 551 814 549 819 q 551 802 553 808 q 550 794 550 796 l 539 746 q 529 724 536 736 q 499 711 522 711 l 429 711 l 411 625 l 481 625 q 506 613 504 625 q 506 590 508 601 l 490 514 q 470 484 485 489 q 449 479 456 479 l 321 479 q 297 488 304 479 q 293 511 289 496 l 296 522 q 288 555 303 550 q 263 560 274 560 q 222 549 231 560 q 210 521 214 538 l 206 503 z "},"´":{"ha":686,"x_min":388,"x_max":756,"o":"m 756 1067 l 406 964 l 388 988 l 699 1172 l 756 1067 z "},"µ":{"ha":810,"x_min":47,"x_max":736,"o":"m 713 0 l 621 0 q 538 31 569 0 q 442 0 492 0 l 244 0 q 213 3 222 0 l 161 -244 l 47 -244 l 240 669 l 354 669 l 246 160 q 252 128 243 142 q 279 114 261 114 l 451 114 q 507 157 497 114 l 615 669 l 731 669 l 622 157 q 629 126 618 138 q 657 114 640 114 l 736 114 l 713 0 z "},"¶":{"ha":719,"x_min":213,"x_max":815,"o":"m 569 -244 l 478 -244 l 699 800 l 621 800 l 400 -244 l 308 -244 l 446 408 l 301 408 q 238 439 263 408 q 213 517 213 469 q 217 556 213 536 l 263 768 q 318 872 275 828 q 410 915 361 915 l 815 915 l 569 -244 z "},"·":{"ha":408,"x_min":196,"x_max":354,"o":"m 326 269 l 196 269 l 224 400 l 354 400 l 326 269 z "},"¸":{"ha":686,"x_min":186,"x_max":475,"o":"m 461 -174 q 431 -224 456 -203 q 375 -244 406 -244 l 246 -244 q 186 -189 186 -244 q 188 -174 186 -182 l 193 -150 l 249 -150 l 244 -168 q 263 -189 240 -189 l 383 -189 q 407 -168 403 -189 l 417 -124 q 397 -101 421 -101 l 358 -101 q 300 -46 300 -101 q 301 -31 300 -39 l 310 8 l 365 8 l 358 -26 q 376 -46 354 -46 l 417 -46 q 475 -103 475 -46 q 474 -118 475 -110 l 461 -174 z "},"¹":{"ha":372,"x_min":231,"x_max":428,"o":"m 428 915 l 293 915 l 275 831 l 324 831 l 231 393 l 317 393 l 428 915 z "},"º":{"ha":474,"x_min":200,"x_max":558,"o":"m 510 617 q 473 557 503 581 q 410 533 443 533 l 299 533 q 229 597 229 533 q 231 617 229 607 l 276 832 q 314 890 285 865 q 379 915 343 915 l 490 915 q 539 897 519 915 q 558 850 558 878 q 556 832 558 840 l 510 617 m 446 622 l 489 825 q 468 850 494 850 l 369 850 q 340 824 346 850 l 299 626 q 319 599 293 599 l 415 599 q 446 622 442 599 m 478 461 l 200 461 l 208 500 l 486 500 l 478 461 z "},"»":{"ha":769,"x_min":85,"x_max":714,"o":"m 696 322 l 350 126 l 336 144 l 604 364 l 431 586 l 451 604 l 714 408 l 696 322 m 444 322 l 99 126 l 85 144 l 353 364 l 179 586 l 200 604 l 463 408 l 444 322 z "},"¼":{"ha":1003,"x_min":153,"x_max":1017,"o":"m 428 915 l 293 915 l 275 831 l 324 831 l 231 393 l 317 393 l 428 915 m 818 932 l 153 13 l 203 -17 l 868 901 l 818 932 m 651 440 l 596 179 l 857 179 l 819 0 l 906 0 l 1017 522 l 931 522 l 876 265 l 701 265 l 728 392 l 788 442 q 793 450 790 444 q 796 468 796 456 q 790 488 796 479 q 776 503 783 497 q 764 510 772 506 q 749 514 756 514 q 740 513 742 514 q 735 508 738 511 l 651 440 z "},"½":{"ha":1003,"x_min":153,"x_max":996,"o":"m 906 -1 l 538 -1 l 576 186 q 627 265 588 233 q 711 297 667 297 l 849 297 q 890 328 883 297 l 906 401 q 881 436 914 436 l 751 436 q 710 404 717 436 l 703 374 l 617 374 l 625 411 q 674 490 635 458 q 760 521 714 521 l 907 521 q 972 497 947 521 q 996 435 996 472 q 993 411 996 424 l 974 322 q 924 243 964 275 q 840 211 885 211 l 703 211 q 661 179 668 211 l 642 85 l 839 85 l 844 111 l 929 111 l 906 -1 m 868 901 l 203 -17 l 153 13 l 818 932 l 868 901 m 317 392 l 231 392 l 324 831 l 275 831 l 293 915 l 428 915 l 317 392 z "},"¾":{"ha":1208,"x_min":199,"x_max":1222,"o":"m 1024 932 l 358 13 l 408 -17 l 1074 901 l 1024 932 m 857 440 l 801 179 l 1063 179 l 1025 0 l 1111 0 l 1222 522 l 1136 522 l 1082 265 l 907 265 l 933 392 l 993 442 q 999 450 996 444 q 1001 468 1001 456 q 995 488 1001 479 q 982 503 989 497 q 969 510 978 506 q 954 514 961 514 q 945 513 947 514 q 940 508 943 511 l 857 440 m 204 503 q 203 460 199 479 q 221 425 208 440 q 252 401 233 410 q 292 393 271 393 l 439 393 q 483 402 461 393 q 524 426 506 411 q 555 461 542 442 q 572 503 568 481 l 593 603 q 575 668 601 642 q 604 697 592 681 q 621 733 617 714 l 636 806 q 621 883 646 850 q 550 915 596 915 l 403 915 q 360 907 382 915 q 319 883 338 899 q 286 848 300 868 q 268 806 272 828 l 261 768 l 347 768 l 353 797 q 372 825 357 821 q 394 829 388 829 l 522 829 q 541 824 535 829 q 549 814 547 819 q 550 802 551 808 q 549 794 549 796 l 538 746 q 528 724 535 736 q 497 711 521 711 l 428 711 l 410 625 l 479 625 q 505 613 503 625 q 504 590 507 601 l 489 514 q 469 484 483 489 q 447 479 454 479 l 319 479 q 295 488 303 479 q 292 511 288 496 l 294 522 q 287 555 301 550 q 261 560 272 560 q 221 549 229 560 q 208 521 213 538 l 204 503 z "},"¿":{"ha":738,"x_min":75,"x_max":635,"o":"m 592 539 l 460 539 l 488 669 l 619 669 l 592 539 m 618 -99 q 552 -203 604 -161 q 440 -244 500 -244 l 193 -244 q 107 -212 139 -244 q 75 -129 75 -179 q 78 -99 75 -114 l 117 82 q 181 187 129 144 q 293 229 233 229 l 349 229 q 403 271 394 229 l 440 442 l 572 442 l 529 244 q 464 140 517 182 q 351 99 411 99 l 296 99 q 242 56 250 99 l 215 -68 q 247 -114 206 -114 l 439 -114 q 493 -72 485 -114 l 504 -17 l 635 -17 l 618 -99 z "},"À":{"ha":686,"x_min":99,"x_max":756,"o":"m 718 988 l 693 964 l 383 1067 l 486 1172 l 718 988 m 589 0 l 474 0 l 547 343 l 286 343 l 213 0 l 99 0 l 263 768 q 327 873 275 831 q 439 915 379 915 l 636 915 q 722 883 688 915 q 756 799 756 850 q 753 768 756 783 l 589 0 m 571 457 l 635 758 q 597 800 643 800 l 428 800 q 374 758 382 800 l 310 457 l 571 457 z "},"Á":{"ha":686,"x_min":99,"x_max":756,"o":"m 756 1067 l 406 964 l 388 988 l 699 1172 l 756 1067 m 589 0 l 474 0 l 547 343 l 286 343 l 213 0 l 99 0 l 263 768 q 327 873 275 831 q 439 915 379 915 l 636 915 q 722 883 688 915 q 756 799 756 850 q 753 768 756 783 l 589 0 m 571 457 l 635 758 q 597 800 643 800 l 428 800 q 374 758 382 800 l 310 457 l 571 457 z "},"Â":{"ha":686,"x_min":99,"x_max":757,"o":"m 757 1018 l 693 964 l 578 1106 l 407 964 l 364 1018 l 556 1176 l 632 1176 l 757 1018 m 589 0 l 474 0 l 547 343 l 286 343 l 213 0 l 99 0 l 263 768 q 327 873 275 831 q 439 915 379 915 l 636 915 q 722 883 688 915 q 756 799 756 850 q 753 768 756 783 l 589 0 m 571 457 l 635 758 q 597 800 643 800 l 428 800 q 374 758 382 800 l 310 457 l 571 457 z "},"Ã":{"ha":686,"x_min":99,"x_max":813,"o":"m 804 1064 q 760 993 794 1022 q 685 964 725 964 l 624 964 q 546 1013 571 964 q 492 1063 521 1063 l 443 1063 q 406 1033 413 1063 l 399 999 l 321 999 l 329 1039 q 374 1109 338 1081 q 451 1138 410 1138 l 513 1138 q 588 1089 561 1138 q 644 1040 615 1040 l 692 1040 q 728 1068 722 1040 l 736 1104 l 813 1104 l 804 1064 m 589 0 l 474 0 l 547 343 l 286 343 l 213 0 l 99 0 l 263 768 q 327 873 275 831 q 439 915 379 915 l 636 915 q 722 883 688 915 q 756 799 756 850 q 753 768 756 783 l 589 0 m 571 457 l 635 758 q 597 800 643 800 l 428 800 q 374 758 382 800 l 310 457 l 571 457 z "},"Ä":{"ha":686,"x_min":99,"x_max":785,"o":"m 747 988 q 686 964 719 964 q 624 1026 624 964 q 660 1099 624 1068 q 721 1122 688 1122 q 767 1104 749 1122 q 785 1058 785 1086 q 747 988 785 1017 m 469 988 q 408 964 442 964 q 346 1026 346 964 q 382 1099 346 1068 q 443 1122 410 1122 q 489 1104 471 1122 q 507 1058 507 1086 q 469 988 507 1017 m 589 0 l 474 0 l 547 343 l 286 343 l 213 0 l 99 0 l 263 768 q 327 873 275 831 q 439 915 379 915 l 636 915 q 722 883 688 915 q 756 799 756 850 q 753 768 756 783 l 589 0 m 571 457 l 635 758 q 597 800 643 800 l 428 800 q 374 758 382 800 l 310 457 l 571 457 z "},"Å":{"ha":686,"x_min":96,"x_max":753,"o":"m 549 964 q 479 991 506 964 q 453 1058 453 1018 q 497 1157 453 1114 q 599 1200 542 1200 q 667 1174 640 1200 q 694 1107 694 1149 q 649 1008 694 1051 q 549 964 604 964 m 646 1082 q 634 1133 650 1113 q 589 1154 618 1154 q 533 1133 558 1154 q 501 1082 508 1113 q 513 1032 497 1053 q 558 1010 529 1011 q 646 1082 624 1014 m 586 0 l 472 0 l 546 343 l 285 343 l 211 0 l 96 0 l 260 768 q 325 873 272 831 q 438 915 378 915 l 633 915 q 719 883 685 915 q 753 800 753 850 q 750 768 753 785 l 586 0 m 569 457 l 633 758 q 596 800 642 800 l 426 800 q 372 758 381 800 l 308 457 l 569 457 z "},"Æ":{"ha":1063,"x_min":99,"x_max":1158,"o":"m 571 457 l 643 800 l 428 800 q 374 758 382 800 l 310 457 l 571 457 m 964 0 l 474 0 l 547 343 l 286 343 l 213 0 l 99 0 l 263 768 q 327 873 275 831 q 439 915 379 915 l 1158 915 l 1133 800 l 758 800 l 703 539 l 997 539 l 974 425 l 679 425 l 613 114 l 988 114 q 1015 75 1015 114 q 1001 28 1015 51 q 964 0 985 0 z "},"Ç":{"ha":686,"x_min":126,"x_max":756,"o":"m 621 147 q 554 42 607 85 q 442 0 501 0 l 364 0 l 358 -26 q 376 -46 354 -46 l 417 -46 q 475 -103 475 -46 q 474 -118 475 -110 l 461 -174 q 431 -224 456 -203 q 375 -244 406 -244 l 246 -244 q 186 -189 186 -244 q 188 -174 186 -182 l 193 -150 l 249 -150 l 244 -168 q 263 -189 240 -189 l 383 -189 q 407 -168 403 -189 l 417 -124 q 397 -101 421 -101 l 358 -101 q 300 -46 300 -101 q 301 -31 300 -39 l 308 0 l 244 0 q 158 31 190 0 q 126 113 126 63 q 131 147 126 129 l 263 768 q 326 872 275 828 q 439 915 376 915 l 636 915 q 722 883 688 915 q 756 799 756 850 q 753 768 756 783 l 742 719 l 626 719 l 635 758 q 597 800 643 800 l 425 800 q 374 756 382 800 l 247 164 q 254 129 243 144 q 282 114 265 114 l 451 114 q 507 157 497 114 l 515 196 l 631 196 l 621 147 z "},"È":{"ha":686,"x_min":99,"x_max":783,"o":"m 718 988 l 693 964 l 383 1067 l 486 1172 l 718 988 m 589 0 l 99 0 l 293 915 l 783 915 l 758 800 l 382 800 l 326 539 l 622 539 l 599 425 l 303 425 l 236 114 l 613 114 l 589 0 z "},"É":{"ha":686,"x_min":99,"x_max":783,"o":"m 756 1067 l 406 964 l 388 988 l 699 1172 l 756 1067 m 589 0 l 99 0 l 293 915 l 783 915 l 758 800 l 382 800 l 326 539 l 622 539 l 599 425 l 303 425 l 236 114 l 613 114 l 589 0 z "},"Ê":{"ha":686,"x_min":99,"x_max":783,"o":"m 757 1018 l 693 964 l 578 1106 l 407 964 l 364 1018 l 556 1176 l 632 1176 l 757 1018 m 589 0 l 99 0 l 293 915 l 783 915 l 758 800 l 382 800 l 326 539 l 622 539 l 599 425 l 303 425 l 236 114 l 613 114 l 589 0 z "},"Ë":{"ha":686,"x_min":99,"x_max":785,"o":"m 747 988 q 686 964 719 964 q 624 1026 624 964 q 660 1099 624 1068 q 721 1122 688 1122 q 767 1104 749 1122 q 785 1058 785 1086 q 747 988 785 1017 m 469 988 q 408 964 442 964 q 346 1026 346 964 q 382 1099 346 1068 q 443 1122 410 1122 q 489 1104 471 1122 q 507 1058 507 1086 q 469 988 507 1017 m 589 0 l 99 0 l 293 915 l 783 915 l 758 800 l 382 800 l 326 539 l 622 539 l 599 425 l 303 425 l 236 114 l 613 114 l 589 0 z "},"Ì":{"ha":376,"x_min":131,"x_max":514,"o":"m 514 988 l 489 964 l 179 1067 l 282 1172 l 514 988 m 244 0 l 131 0 l 325 915 l 439 915 l 244 0 z "},"Í":{"ha":376,"x_min":131,"x_max":651,"o":"m 651 1067 l 300 964 l 283 988 l 593 1172 l 651 1067 m 244 0 l 131 0 l 325 915 l 439 915 l 244 0 z "},"Î":{"ha":376,"x_min":139,"x_max":611,"o":"m 611 1018 l 546 964 l 431 1106 l 260 964 l 217 1018 l 408 1176 l 485 1176 l 611 1018 m 253 0 l 139 0 l 333 915 l 447 915 l 253 0 z "},"Ï":{"ha":376,"x_min":133,"x_max":633,"o":"m 596 988 q 536 964 568 964 q 490 982 508 964 q 472 1026 472 1000 q 508 1099 472 1068 q 569 1122 536 1122 q 615 1104 597 1122 q 633 1060 633 1086 q 596 988 633 1018 m 318 988 q 258 964 290 964 q 213 982 231 964 q 194 1026 194 1000 q 231 1099 194 1068 q 292 1122 258 1122 q 338 1104 319 1122 q 356 1060 356 1086 q 318 988 356 1018 m 249 0 l 133 0 l 328 915 l 443 915 l 249 0 z "},"Ð":{"ha":686,"x_min":90,"x_max":758,"o":"m 507 157 q 451 114 499 114 l 236 114 l 303 425 l 401 425 l 425 539 l 326 539 l 382 800 l 597 800 q 635 758 643 800 l 507 157 m 753 768 q 752 826 758 799 q 730 873 746 853 q 690 904 714 893 q 636 915 665 915 l 293 915 l 213 539 l 114 539 l 90 425 l 189 425 l 99 0 l 442 0 q 500 11 471 0 q 554 42 529 22 q 597 89 579 63 q 621 147 614 115 l 753 768 z "},"Ñ":{"ha":686,"x_min":99,"x_max":813,"o":"m 804 1064 q 760 993 794 1022 q 685 964 725 964 l 624 964 q 546 1013 571 964 q 492 1063 521 1063 l 443 1063 q 406 1033 413 1063 l 399 999 l 321 999 l 329 1039 q 374 1109 338 1081 q 451 1138 410 1138 l 513 1138 q 588 1089 561 1138 q 644 1040 615 1040 l 692 1040 q 728 1068 722 1040 l 736 1104 l 813 1104 l 804 1064 m 589 0 l 444 0 l 349 639 l 213 0 l 99 0 l 293 915 l 428 915 l 528 253 l 668 915 l 783 915 l 589 0 z "},"Ò":{"ha":686,"x_min":126,"x_max":756,"o":"m 718 988 l 693 964 l 383 1067 l 486 1172 l 718 988 m 621 147 q 554 42 607 85 q 442 0 501 0 l 244 0 q 158 31 190 0 q 126 113 126 63 q 131 147 126 129 l 263 768 q 326 872 275 828 q 439 915 376 915 l 636 915 q 722 883 688 915 q 756 799 756 850 q 753 768 756 783 l 621 147 m 507 157 l 635 758 q 597 800 643 800 l 425 800 q 374 756 382 800 l 247 164 q 254 129 243 144 q 282 114 265 114 l 451 114 q 507 157 497 114 z "},"Ó":{"ha":686,"x_min":126,"x_max":756,"o":"m 756 1067 l 406 964 l 388 988 l 699 1172 l 756 1067 m 621 147 q 554 42 607 85 q 442 0 501 0 l 244 0 q 158 31 190 0 q 126 113 126 63 q 131 147 126 129 l 263 768 q 326 872 275 828 q 439 915 376 915 l 636 915 q 722 883 688 915 q 756 799 756 850 q 753 768 756 783 l 621 147 m 507 157 l 635 758 q 597 800 643 800 l 425 800 q 374 756 382 800 l 247 164 q 254 129 243 144 q 282 114 265 114 l 451 114 q 507 157 497 114 z "},"Ô":{"ha":686,"x_min":126,"x_max":757,"o":"m 757 1018 l 693 964 l 578 1106 l 407 964 l 364 1018 l 556 1176 l 632 1176 l 757 1018 m 621 147 q 554 42 607 85 q 442 0 501 0 l 244 0 q 158 31 190 0 q 126 113 126 63 q 131 147 126 129 l 263 768 q 326 872 275 828 q 439 915 376 915 l 636 915 q 722 883 688 915 q 756 799 756 850 q 753 768 756 783 l 621 147 m 507 157 l 635 758 q 597 800 643 800 l 425 800 q 374 756 382 800 l 247 164 q 254 129 243 144 q 282 114 265 114 l 451 114 q 507 157 497 114 z "},"Õ":{"ha":686,"x_min":126,"x_max":813,"o":"m 804 1064 q 760 993 794 1022 q 685 964 725 964 l 624 964 q 546 1013 571 964 q 492 1063 521 1063 l 443 1063 q 406 1033 413 1063 l 399 999 l 321 999 l 329 1039 q 374 1109 338 1081 q 451 1138 410 1138 l 513 1138 q 588 1089 561 1138 q 644 1040 615 1040 l 692 1040 q 728 1068 722 1040 l 736 1104 l 813 1104 l 804 1064 m 621 147 q 554 42 607 85 q 442 0 501 0 l 244 0 q 158 31 190 0 q 126 113 126 63 q 131 147 126 129 l 263 768 q 326 872 275 828 q 439 915 376 915 l 636 915 q 722 883 688 915 q 756 799 756 850 q 753 768 756 783 l 621 147 m 507 157 l 635 758 q 597 800 643 800 l 425 800 q 374 756 382 800 l 247 164 q 254 129 243 144 q 282 114 265 114 l 451 114 q 507 157 497 114 z "},"Ö":{"ha":686,"x_min":126,"x_max":785,"o":"m 747 988 q 686 964 719 964 q 624 1026 624 964 q 660 1099 624 1068 q 721 1122 688 1122 q 767 1104 749 1122 q 785 1058 785 1086 q 747 988 785 1017 m 469 988 q 408 964 442 964 q 346 1026 346 964 q 382 1099 346 1068 q 443 1122 410 1122 q 489 1104 471 1122 q 507 1058 507 1086 q 469 988 507 1017 m 621 147 q 554 42 607 85 q 442 0 501 0 l 244 0 q 158 31 190 0 q 126 113 126 63 q 131 147 126 129 l 263 768 q 326 872 275 828 q 439 915 376 915 l 636 915 q 722 883 688 915 q 756 799 756 850 q 753 768 756 783 l 621 147 m 507 157 l 635 758 q 597 800 643 800 l 425 800 q 374 756 382 800 l 247 164 q 254 129 243 144 q 282 114 265 114 l 451 114 q 507 157 497 114 z "},"×":{"ha":686,"x_min":140,"x_max":692,"o":"m 628 576 l 433 415 l 304 576 l 207 496 l 335 335 l 140 174 l 203 93 l 399 254 l 524 93 l 622 174 l 494 335 l 692 496 l 628 576 z "},"Ø":{"ha":686,"x_min":121,"x_max":767,"o":"m 621 147 q 554 42 607 85 q 442 0 501 0 l 244 0 q 201 7 217 0 l 176 -33 l 121 -8 l 150 39 q 126 111 126 68 q 131 147 126 128 l 263 768 q 326 872 275 828 q 439 915 376 915 l 636 915 q 685 906 663 915 l 711 947 l 767 924 l 732 869 q 756 799 756 839 q 753 768 756 785 l 621 147 m 617 796 q 597 800 611 800 l 425 800 q 374 756 382 800 l 258 214 l 617 796 m 507 157 l 619 685 l 268 118 q 282 114 283 114 l 451 114 q 507 157 497 114 z "},"Ù":{"ha":686,"x_min":126,"x_max":783,"o":"m 718 988 l 693 964 l 383 1067 l 486 1172 l 718 988 m 621 147 q 554 42 607 85 q 442 0 501 0 l 244 0 q 160 33 193 0 q 126 115 126 65 q 131 147 126 131 l 293 915 l 407 915 l 246 157 q 282 114 236 114 l 451 114 q 507 157 497 114 l 668 915 l 783 915 l 621 147 z "},"Ú":{"ha":686,"x_min":126,"x_max":783,"o":"m 756 1067 l 406 964 l 388 988 l 699 1172 l 756 1067 m 621 147 q 554 42 607 85 q 442 0 501 0 l 244 0 q 160 33 193 0 q 126 115 126 65 q 131 147 126 131 l 293 915 l 407 915 l 246 157 q 282 114 236 114 l 451 114 q 507 157 497 114 l 668 915 l 783 915 l 621 147 z "},"Û":{"ha":686,"x_min":126,"x_max":783,"o":"m 715 1018 l 650 964 l 535 1106 l 364 964 l 321 1018 l 513 1176 l 590 1176 l 715 1018 m 621 147 q 554 42 607 85 q 442 0 501 0 l 244 0 q 160 33 193 0 q 126 115 126 65 q 131 147 126 131 l 293 915 l 407 915 l 246 157 q 282 114 236 114 l 451 114 q 507 157 497 114 l 668 915 l 783 915 l 621 147 z "},"Ü":{"ha":686,"x_min":126,"x_max":785,"o":"m 747 988 q 686 964 719 964 q 624 1026 624 964 q 660 1099 624 1068 q 721 1122 688 1122 q 767 1104 749 1122 q 785 1058 785 1086 q 747 988 785 1017 m 469 988 q 408 964 442 964 q 346 1026 346 964 q 382 1099 346 1068 q 443 1122 410 1122 q 489 1104 471 1122 q 507 1058 507 1086 q 469 988 507 1017 m 621 147 q 554 42 607 85 q 442 0 501 0 l 244 0 q 160 33 193 0 q 126 115 126 65 q 131 147 126 131 l 293 915 l 407 915 l 246 157 q 282 114 236 114 l 451 114 q 507 157 497 114 l 668 915 l 783 915 l 621 147 z "},"Ý":{"ha":657,"x_min":199,"x_max":772,"o":"m 768 915 l 653 915 l 582 582 q 526 539 574 539 l 357 539 q 321 582 313 539 l 392 915 l 278 915 l 206 572 q 204 514 199 540 q 226 467 210 488 q 266 436 242 447 q 319 425 290 425 l 363 425 l 272 0 l 386 0 l 476 425 l 517 425 q 575 436 546 425 q 629 467 604 447 q 672 514 654 488 q 696 572 689 540 l 768 915 m 715 1172 l 404 988 l 422 964 l 772 1067 l 715 1172 z "},"Þ":{"ha":679,"x_min":99,"x_max":722,"o":"m 564 422 q 542 388 560 403 q 507 372 525 372 l 292 372 l 347 633 l 567 633 q 599 589 610 633 l 564 422 m 717 601 q 717 658 722 631 q 697 705 713 685 q 656 737 681 725 q 601 749 632 749 l 372 749 l 407 915 l 293 915 l 99 0 l 213 0 l 268 258 l 497 258 q 611 300 561 258 q 675 406 661 342 l 717 601 z "},"ß":{"ha":686,"x_min":60,"x_max":703,"o":"m 621 147 q 556 42 607 83 q 442 0 506 0 l 285 0 l 308 114 l 451 114 q 487 129 469 114 q 508 164 504 144 l 539 306 q 485 372 546 342 q 401 483 401 414 q 506 651 401 568 q 547 686 536 676 q 576 725 574 711 l 583 756 q 577 787 586 774 q 549 800 568 800 l 428 800 q 374 758 382 800 l 174 -186 l 60 -186 l 263 768 q 327 873 275 831 q 439 915 379 915 l 583 915 q 670 882 638 915 q 703 799 703 849 q 700 768 703 783 l 694 744 q 643 646 682 688 q 547 564 596 606 q 511 508 511 532 q 560 461 511 481 q 658 340 658 422 q 654 306 658 324 l 621 147 z "},"à":{"ha":686,"x_min":114,"x_max":690,"o":"m 669 758 l 643 735 l 335 839 l 438 943 l 669 758 m 496 164 l 518 265 q 513 297 521 283 q 486 311 504 311 l 313 311 q 257 268 267 311 l 233 160 q 240 128 231 142 q 267 114 249 114 l 439 114 q 474 129 457 114 q 496 164 492 144 m 319 556 q 293 594 293 556 q 308 644 293 618 q 343 669 322 669 l 571 669 q 658 636 625 669 q 690 553 690 603 q 688 522 690 538 l 608 147 q 542 42 594 85 q 429 0 489 0 l 232 0 q 146 33 178 0 q 114 115 114 65 q 118 147 114 131 l 146 278 q 210 383 158 340 q 322 425 263 425 l 519 425 q 551 422 542 425 l 569 510 q 538 556 579 556 l 319 556 z "},"á":{"ha":686,"x_min":114,"x_max":706,"o":"m 706 839 l 353 735 l 338 758 l 647 943 l 706 839 m 496 164 l 518 265 q 513 297 521 283 q 486 311 504 311 l 313 311 q 257 268 267 311 l 233 160 q 240 128 231 142 q 267 114 249 114 l 439 114 q 474 129 457 114 q 496 164 492 144 m 319 556 q 293 594 293 556 q 308 644 293 618 q 343 669 322 669 l 571 669 q 658 636 625 669 q 690 553 690 603 q 688 522 690 538 l 608 147 q 542 42 594 85 q 429 0 489 0 l 232 0 q 146 33 178 0 q 114 115 114 65 q 118 147 114 131 l 146 278 q 210 383 158 340 q 322 425 263 425 l 519 425 q 551 422 542 425 l 569 510 q 538 556 579 556 l 319 556 z "},"â":{"ha":686,"x_min":114,"x_max":708,"o":"m 708 789 l 643 735 l 529 878 l 357 735 l 315 789 l 507 947 l 583 947 l 708 789 m 496 164 l 518 265 q 513 297 521 283 q 486 311 504 311 l 313 311 q 257 268 267 311 l 233 160 q 240 128 231 142 q 267 114 249 114 l 439 114 q 474 129 457 114 q 496 164 492 144 m 319 556 q 293 594 293 556 q 308 644 293 618 q 343 669 322 669 l 571 669 q 658 636 625 669 q 690 553 690 603 q 688 522 690 538 l 608 147 q 542 42 594 85 q 429 0 489 0 l 232 0 q 146 33 178 0 q 114 115 114 65 q 118 147 114 131 l 146 278 q 210 383 158 340 q 322 425 263 425 l 519 425 q 551 422 542 425 l 569 510 q 538 556 579 556 l 319 556 z "},"ã":{"ha":686,"x_min":114,"x_max":764,"o":"m 756 835 q 711 763 746 792 q 635 735 676 735 l 574 735 q 497 784 522 735 q 443 833 472 833 l 394 833 q 357 804 364 833 l 350 769 l 272 769 l 281 811 q 326 881 290 853 q 403 908 361 908 l 464 908 q 540 860 513 908 q 596 813 567 813 l 643 813 q 681 840 674 813 l 688 876 l 764 876 l 756 835 m 496 164 l 518 265 q 513 297 521 283 q 486 311 504 311 l 313 311 q 257 268 267 311 l 233 160 q 240 128 231 142 q 267 114 249 114 l 439 114 q 474 129 457 114 q 496 164 492 144 m 319 556 q 293 594 293 556 q 308 644 293 618 q 343 669 322 669 l 571 669 q 658 636 625 669 q 690 553 690 603 q 688 522 690 538 l 608 147 q 542 42 594 85 q 429 0 489 0 l 232 0 q 146 33 178 0 q 114 115 114 65 q 118 147 114 131 l 146 278 q 210 383 158 340 q 322 425 263 425 l 519 425 q 551 422 542 425 l 569 510 q 538 556 579 556 l 319 556 z "},"ä":{"ha":686,"x_min":114,"x_max":736,"o":"m 699 758 q 638 736 671 736 q 575 796 575 736 q 611 869 575 839 q 671 893 639 893 q 717 875 699 893 q 736 829 736 857 q 699 758 736 788 m 421 758 q 360 736 393 736 q 297 796 297 736 q 333 869 297 839 q 393 893 361 893 q 440 875 421 893 q 458 829 458 857 q 421 758 458 788 m 496 164 l 518 265 q 513 297 521 283 q 486 311 504 311 l 313 311 q 257 268 267 311 l 233 160 q 240 128 231 142 q 267 114 249 114 l 439 114 q 474 129 457 114 q 496 164 492 144 m 319 556 q 293 594 293 556 q 308 644 293 618 q 343 669 322 669 l 571 669 q 658 636 625 669 q 690 553 690 603 q 688 522 690 538 l 608 147 q 542 42 594 85 q 429 0 489 0 l 232 0 q 146 33 178 0 q 114 115 114 65 q 118 147 114 131 l 146 278 q 210 383 158 340 q 322 425 263 425 l 519 425 q 551 422 542 425 l 569 510 q 538 556 579 556 l 319 556 z "},"å":{"ha":686,"x_min":114,"x_max":690,"o":"m 499 735 q 431 762 457 735 q 404 829 404 789 q 449 928 404 885 q 550 971 493 971 q 618 945 592 971 q 644 878 644 919 q 600 778 644 822 q 499 735 556 735 m 597 853 q 586 904 603 883 q 540 925 569 925 q 485 905 510 925 q 453 853 460 885 q 508 781 446 788 q 597 853 575 788 m 496 164 l 518 265 q 513 297 521 283 q 486 311 504 311 l 313 311 q 257 268 267 311 l 233 160 q 240 128 231 142 q 267 114 249 114 l 439 114 q 474 129 457 114 q 496 164 492 144 m 319 556 q 293 594 293 556 q 308 644 293 618 q 343 669 322 669 l 571 669 q 658 636 625 669 q 690 553 690 603 q 688 522 690 538 l 608 147 q 542 42 594 85 q 429 0 489 0 l 232 0 q 146 33 178 0 q 114 115 114 65 q 118 147 114 131 l 146 278 q 210 383 158 340 q 322 425 263 425 l 519 425 q 551 422 542 425 l 569 510 q 538 556 579 556 l 319 556 z "},"æ":{"ha":1063,"x_min":126,"x_max":1078,"o":"m 1024 278 l 649 278 l 622 160 q 654 114 613 114 l 986 114 l 976 67 q 921 6 967 18 q 817 0 899 0 l 621 0 q 536 29 571 0 q 442 0 493 0 l 244 0 q 158 33 190 0 q 126 115 126 65 q 131 147 126 131 l 158 278 q 223 383 171 340 q 335 425 275 425 l 532 425 q 564 422 554 425 l 582 510 q 550 556 592 556 l 333 556 q 308 613 297 556 q 357 669 321 669 l 583 669 q 667 639 636 669 q 763 669 713 669 l 958 669 q 1045 636 1013 669 q 1078 553 1078 603 q 1075 522 1078 538 l 1024 278 m 933 392 l 958 510 q 925 556 968 556 l 751 556 q 718 541 735 556 q 697 507 701 526 l 672 392 l 933 392 m 508 164 l 531 265 q 525 297 533 283 q 499 311 517 311 l 325 311 q 269 268 279 311 l 246 160 q 252 128 243 142 q 279 114 261 114 l 451 114 q 487 129 469 114 q 508 164 504 144 z "},"ç":{"ha":686,"x_min":126,"x_max":703,"o":"m 621 147 q 554 42 607 85 q 442 0 501 0 l 364 0 l 358 -26 q 376 -46 354 -46 l 417 -46 q 475 -103 475 -46 q 474 -118 475 -110 l 461 -174 q 431 -224 456 -203 q 375 -244 406 -244 l 246 -244 q 186 -189 186 -244 q 188 -174 186 -182 l 193 -150 l 249 -150 l 244 -168 q 263 -189 240 -189 l 383 -189 q 407 -168 403 -189 l 417 -124 q 397 -101 421 -101 l 358 -101 q 300 -46 300 -101 q 301 -31 300 -39 l 308 0 l 244 0 q 158 31 190 0 q 126 113 126 63 q 131 147 126 129 l 210 522 q 273 626 222 583 q 386 669 324 669 l 583 669 q 669 638 636 669 q 703 554 703 606 q 700 522 703 539 l 689 474 l 574 474 l 582 513 q 546 556 592 556 l 374 556 q 321 510 331 556 l 247 164 q 254 129 243 144 q 282 114 265 114 l 451 114 q 507 157 497 114 l 515 196 l 631 196 l 621 147 z "},"è":{"ha":686,"x_min":126,"x_max":703,"o":"m 669 758 l 643 735 l 335 839 l 438 943 l 669 758 m 649 278 l 338 278 q 313 317 313 278 q 327 366 313 340 q 363 392 342 392 l 557 392 l 582 510 q 550 556 592 556 l 376 556 q 342 541 358 556 q 321 507 325 526 l 246 160 q 252 128 243 142 q 279 114 261 114 l 604 114 l 596 71 q 542 7 585 19 q 442 0 519 0 l 244 0 q 158 33 190 0 q 126 115 126 65 q 131 147 126 131 l 210 522 q 275 628 224 586 q 386 669 326 669 l 583 669 q 670 636 638 669 q 703 553 703 603 q 700 522 703 538 l 649 278 z "},"é":{"ha":686,"x_min":126,"x_max":706,"o":"m 706 839 l 353 735 l 338 758 l 647 943 l 706 839 m 649 278 l 338 278 q 313 317 313 278 q 327 366 313 340 q 363 392 342 392 l 557 392 l 582 510 q 550 556 592 556 l 376 556 q 342 541 358 556 q 321 507 325 526 l 246 160 q 252 128 243 142 q 279 114 261 114 l 604 114 l 596 71 q 542 7 585 19 q 442 0 519 0 l 244 0 q 158 33 190 0 q 126 115 126 65 q 131 147 126 131 l 210 522 q 275 628 224 586 q 386 669 326 669 l 583 669 q 670 636 638 669 q 703 553 703 603 q 700 522 703 538 l 649 278 z "},"ê":{"ha":686,"x_min":126,"x_max":708,"o":"m 708 789 l 643 735 l 529 878 l 357 735 l 315 789 l 507 947 l 583 947 l 708 789 m 649 278 l 338 278 q 313 317 313 278 q 327 366 313 340 q 363 392 342 392 l 557 392 l 582 510 q 550 556 592 556 l 376 556 q 342 541 358 556 q 321 507 325 526 l 246 160 q 252 128 243 142 q 279 114 261 114 l 604 114 l 596 71 q 542 7 585 19 q 442 0 519 0 l 244 0 q 158 33 190 0 q 126 115 126 65 q 131 147 126 131 l 210 522 q 275 628 224 586 q 386 669 326 669 l 583 669 q 670 636 638 669 q 703 553 703 603 q 700 522 703 538 l 649 278 z "},"ë":{"ha":686,"x_min":126,"x_max":736,"o":"m 699 758 q 638 736 671 736 q 575 796 575 736 q 611 869 575 839 q 671 893 639 893 q 717 875 699 893 q 736 829 736 857 q 699 758 736 788 m 421 758 q 360 736 393 736 q 297 796 297 736 q 333 869 297 839 q 393 893 361 893 q 440 875 421 893 q 458 829 458 857 q 421 758 458 788 m 649 278 l 338 278 q 313 317 313 278 q 327 366 313 340 q 363 392 342 392 l 557 392 l 582 510 q 550 556 592 556 l 376 556 q 342 541 358 556 q 321 507 325 526 l 246 160 q 252 128 243 142 q 279 114 261 114 l 604 114 l 596 71 q 542 7 585 19 q 442 0 519 0 l 244 0 q 158 33 190 0 q 126 115 126 65 q 131 147 126 131 l 210 522 q 275 628 224 586 q 386 669 326 669 l 583 669 q 670 636 638 669 q 703 553 703 603 q 700 522 703 538 l 649 278 z "},"ì":{"ha":376,"x_min":124,"x_max":465,"o":"m 465 758 l 439 735 l 131 839 l 233 943 l 465 758 m 247 139 l 294 79 q 299 67 299 74 q 267 13 299 40 q 215 -8 239 -8 q 197 -1 203 -8 l 124 92 l 246 669 l 360 669 l 247 139 z "},"í":{"ha":376,"x_min":124,"x_max":600,"o":"m 600 839 l 247 735 l 232 758 l 542 943 l 600 839 m 247 139 l 294 79 q 299 67 299 74 q 267 13 299 40 q 215 -8 239 -8 q 197 -1 203 -8 l 124 92 l 246 669 l 360 669 l 247 139 z "},"î":{"ha":376,"x_min":153,"x_max":556,"o":"m 556 789 l 489 735 l 375 878 l 203 735 l 161 789 l 353 947 l 431 947 l 556 789 m 276 139 l 324 79 q 328 67 328 74 q 296 13 328 40 q 244 -8 268 -8 q 226 -1 232 -8 l 153 92 l 275 669 l 389 669 l 276 139 z "},"ï":{"ha":376,"x_min":140,"x_max":582,"o":"m 544 758 q 483 736 517 736 q 439 753 457 736 q 421 797 421 769 q 457 869 421 839 q 517 893 485 893 q 563 875 544 893 q 582 829 582 857 q 544 758 582 789 m 267 758 q 206 736 239 736 q 161 753 179 736 q 143 797 143 769 q 179 869 143 839 q 239 893 207 893 q 285 875 267 893 q 304 829 304 857 q 267 758 304 789 m 264 139 l 311 79 q 315 67 315 74 q 283 13 315 40 q 232 -8 256 -8 q 214 -1 219 -8 l 140 92 l 263 669 l 376 669 l 264 139 z "},"ð":{"ha":686,"x_min":124,"x_max":769,"o":"m 388 669 q 329 658 358 669 q 276 627 300 647 q 234 580 251 607 q 210 522 217 553 l 131 147 q 129 91 124 118 q 150 44 135 64 q 190 12 165 24 q 246 0 214 0 l 443 0 q 501 11 472 0 q 555 42 531 22 q 597 89 579 63 q 621 147 614 115 l 731 669 l 685 767 l 751 767 l 769 850 l 647 850 l 617 915 l 503 915 l 533 850 l 340 850 l 322 767 l 571 767 l 617 669 l 510 164 q 488 129 506 144 q 453 114 471 114 l 279 114 q 253 128 261 114 q 247 160 244 142 l 322 513 q 378 556 332 556 l 528 556 q 576 613 564 556 q 553 669 588 669 l 388 669 z "},"ñ":{"ha":686,"x_min":99,"x_max":764,"o":"m 756 835 q 711 763 746 792 q 635 735 676 735 l 574 735 q 497 784 522 735 q 443 833 472 833 l 394 833 q 357 804 364 833 l 350 769 l 272 769 l 281 811 q 326 881 290 853 q 403 908 361 908 l 464 908 q 540 860 513 908 q 596 813 567 813 l 643 813 q 681 840 674 813 l 688 876 l 764 876 l 756 835 m 589 0 l 474 0 l 582 513 q 546 556 592 556 l 331 556 l 213 0 l 99 0 l 240 669 l 583 669 q 669 638 636 669 q 703 554 703 606 q 700 522 703 539 l 589 0 z "},"ò":{"ha":686,"x_min":126,"x_max":703,"o":"m 669 758 l 643 735 l 335 839 l 438 943 l 669 758 m 621 147 q 554 42 607 85 q 442 0 501 0 l 244 0 q 158 31 190 0 q 126 113 126 63 q 131 147 126 129 l 210 522 q 273 626 222 583 q 386 669 324 669 l 583 669 q 669 638 636 669 q 703 554 703 606 q 700 522 703 539 l 621 147 m 507 157 l 582 513 q 546 556 592 556 l 374 556 q 321 510 331 556 l 247 164 q 254 129 243 144 q 282 114 265 114 l 451 114 q 507 157 497 114 z "},"ó":{"ha":686,"x_min":126,"x_max":706,"o":"m 706 839 l 353 735 l 338 758 l 647 943 l 706 839 m 621 147 q 554 42 607 85 q 442 0 501 0 l 244 0 q 158 31 190 0 q 126 113 126 63 q 131 147 126 129 l 210 522 q 273 626 222 583 q 386 669 324 669 l 583 669 q 669 638 636 669 q 703 554 703 606 q 700 522 703 539 l 621 147 m 507 157 l 582 513 q 546 556 592 556 l 374 556 q 321 510 331 556 l 247 164 q 254 129 243 144 q 282 114 265 114 l 451 114 q 507 157 497 114 z "},"ô":{"ha":686,"x_min":126,"x_max":708,"o":"m 708 789 l 643 735 l 529 878 l 357 735 l 315 789 l 507 947 l 583 947 l 708 789 m 621 147 q 554 42 607 85 q 442 0 501 0 l 244 0 q 158 31 190 0 q 126 113 126 63 q 131 147 126 129 l 210 522 q 273 626 222 583 q 386 669 324 669 l 583 669 q 669 638 636 669 q 703 554 703 606 q 700 522 703 539 l 621 147 m 507 157 l 582 513 q 546 556 592 556 l 374 556 q 321 510 331 556 l 247 164 q 254 129 243 144 q 282 114 265 114 l 451 114 q 507 157 497 114 z "},"õ":{"ha":686,"x_min":126,"x_max":764,"o":"m 756 835 q 711 763 746 792 q 635 735 676 735 l 574 735 q 497 784 522 735 q 443 833 472 833 l 394 833 q 357 804 364 833 l 350 769 l 272 769 l 281 811 q 326 881 290 853 q 403 908 361 908 l 464 908 q 540 860 513 908 q 596 813 567 813 l 643 813 q 681 840 674 813 l 688 876 l 764 876 l 756 835 m 621 147 q 554 42 607 85 q 442 0 501 0 l 244 0 q 158 31 190 0 q 126 113 126 63 q 131 147 126 129 l 210 522 q 273 626 222 583 q 386 669 324 669 l 583 669 q 669 638 636 669 q 703 554 703 606 q 700 522 703 539 l 621 147 m 507 157 l 582 513 q 546 556 592 556 l 374 556 q 321 510 331 556 l 247 164 q 254 129 243 144 q 282 114 265 114 l 451 114 q 507 157 497 114 z "},"ö":{"ha":686,"x_min":126,"x_max":736,"o":"m 699 758 q 638 736 671 736 q 575 796 575 736 q 611 869 575 839 q 671 893 639 893 q 717 875 699 893 q 736 829 736 857 q 699 758 736 788 m 421 758 q 360 736 393 736 q 297 796 297 736 q 333 869 297 839 q 393 893 361 893 q 440 875 421 893 q 458 829 458 857 q 421 758 458 788 m 621 147 q 554 42 607 85 q 442 0 501 0 l 244 0 q 158 31 190 0 q 126 113 126 63 q 131 147 126 129 l 210 522 q 273 626 222 583 q 386 669 324 669 l 583 669 q 669 638 636 669 q 703 554 703 606 q 700 522 703 539 l 621 147 m 507 157 l 582 513 q 546 556 592 556 l 374 556 q 321 510 331 556 l 247 164 q 254 129 243 144 q 282 114 265 114 l 451 114 q 507 157 497 114 z "},"÷":{"ha":686,"x_min":158,"x_max":672,"o":"m 504 450 l 374 450 l 401 581 l 532 581 l 504 450 m 649 278 l 158 278 l 182 392 l 672 392 l 649 278 m 428 90 l 297 90 l 325 221 l 456 221 l 428 90 z "},"ø":{"ha":686,"x_min":119,"x_max":725,"o":"m 621 147 q 554 42 607 85 q 442 0 501 0 l 244 0 q 201 7 217 0 l 169 -33 l 119 0 l 150 39 q 126 111 126 68 q 131 147 126 128 l 210 522 q 273 626 222 583 q 386 669 324 669 l 583 669 q 640 657 615 669 l 676 703 l 725 669 l 686 618 q 700 522 711 576 l 621 147 m 557 554 q 546 556 554 556 l 374 556 q 321 510 331 556 l 246 160 l 557 554 m 507 157 l 576 481 l 285 114 l 451 114 q 507 157 497 114 z "},"ù":{"ha":686,"x_min":126,"x_max":731,"o":"m 669 758 l 643 735 l 335 839 l 438 943 l 669 758 m 589 0 l 244 0 q 160 33 193 0 q 126 115 126 65 q 131 147 126 131 l 240 669 l 354 669 l 246 157 q 282 114 236 114 l 497 114 l 615 669 l 731 669 l 589 0 z "},"ú":{"ha":686,"x_min":126,"x_max":731,"o":"m 706 839 l 353 735 l 338 758 l 647 943 l 706 839 m 589 0 l 244 0 q 160 33 193 0 q 126 115 126 65 q 131 147 126 131 l 240 669 l 354 669 l 246 157 q 282 114 236 114 l 497 114 l 615 669 l 731 669 l 589 0 z "},"û":{"ha":686,"x_min":126,"x_max":731,"o":"m 708 789 l 643 735 l 529 878 l 357 735 l 315 789 l 507 947 l 583 947 l 708 789 m 589 0 l 244 0 q 160 33 193 0 q 126 115 126 65 q 131 147 126 131 l 240 669 l 354 669 l 246 157 q 282 114 236 114 l 497 114 l 615 669 l 731 669 l 589 0 z "},"ü":{"ha":686,"x_min":126,"x_max":736,"o":"m 699 758 q 638 736 671 736 q 575 796 575 736 q 611 869 575 839 q 671 893 639 893 q 717 875 699 893 q 736 829 736 857 q 699 758 736 788 m 421 758 q 360 736 393 736 q 297 796 297 736 q 333 869 297 839 q 393 893 361 893 q 440 875 421 893 q 458 829 458 857 q 421 758 458 788 m 589 0 l 244 0 q 160 33 193 0 q 126 115 126 65 q 131 147 126 131 l 240 669 l 354 669 l 246 157 q 282 114 236 114 l 497 114 l 615 669 l 731 669 l 589 0 z "},"ý":{"ha":683,"x_min":136,"x_max":810,"o":"m 783 669 l 660 669 l 424 107 q 296 365 242 107 l 361 669 l 239 669 l 175 364 q 200 82 136 179 q 361 0 254 0 l 378 0 l 326 -121 l 246 -178 q 226 -208 231 -189 q 234 -247 222 -229 q 267 -265 246 -265 q 292 -258 281 -265 l 431 -165 l 783 669 m 751 943 l 442 758 l 457 735 l 810 839 l 751 943 z "},"þ":{"ha":686,"x_min":46,"x_max":706,"o":"m 442 0 q 500 12 471 0 q 554 44 529 24 q 597 90 579 64 q 621 147 614 117 l 700 522 q 700 578 706 551 q 678 625 694 604 q 638 658 663 646 q 583 669 614 669 l 354 669 l 407 915 l 293 915 l 46 -249 l 160 -249 l 331 556 l 550 556 q 577 542 568 556 q 582 510 586 528 l 507 157 q 503 146 506 153 q 495 132 501 139 q 478 119 489 125 q 451 114 468 114 l 301 114 q 278 105 288 114 q 263 82 269 96 q 254 51 257 68 q 251 21 251 35 q 260 3 251 7 q 276 0 269 0 l 442 0 z "},"ÿ":{"ha":686,"x_min":160,"x_max":785,"o":"m 719 758 q 658 736 692 736 q 596 796 596 736 q 632 869 596 839 q 692 893 660 893 q 738 875 719 893 q 757 829 757 857 q 719 758 757 788 m 442 758 q 381 736 414 736 q 318 796 318 736 q 354 869 318 839 q 414 893 382 893 q 460 875 442 893 q 479 829 479 857 q 442 758 479 788 m 429 -165 l 292 -258 q 268 -265 281 -265 q 225 -218 225 -265 q 246 -178 225 -192 l 326 -121 l 378 0 l 361 0 q 222 54 275 0 q 160 238 160 117 q 175 364 160 294 l 239 669 l 361 669 l 296 365 q 283 263 283 307 q 425 107 283 107 l 661 669 l 785 669 l 429 -165 z "}}}
